<?xml version="1.0" encoding="UTF-8" standalone="no"?>
<!-- Created with Inkscape (http://www.inkscape.org/) -->

<svg
   xmlns:dc="http://purl.org/dc/elements/1.1/"
   xmlns:cc="http://creativecommons.org/ns#"
   xmlns:rdf="http://www.w3.org/1999/02/22-rdf-syntax-ns#"
   xmlns:svg="http://www.w3.org/2000/svg"
   xmlns="http://www.w3.org/2000/svg"
   xmlns:xlink="http://www.w3.org/1999/xlink"
   xmlns:sodipodi="http://sodipodi.sourceforge.net/DTD/sodipodi-0.dtd"
   xmlns:inkscape="http://www.inkscape.org/namespaces/inkscape"
   id="svg2"
   version="1.1"
   inkscape:version="0.91 r13725"
   xml:space="preserve"
   width="800"
   height="548"
   viewBox="0 0 800 547.99997"
   sodipodi:docname="Logo Bourg-la-Reine.svg"><metadata
     id="metadata8"><rdf:RDF><cc:Work
         rdf:about=""><dc:format>image/svg+xml</dc:format><dc:type
           rdf:resource="http://purl.org/dc/dcmitype/StillImage" /><dc:title /></cc:Work></rdf:RDF></metadata><defs
     id="defs6"><linearGradient
       inkscape:collect="always"
       id="linearGradient4328"><stop
         style="stop-color:#3b81cc;stop-opacity:1"
         offset="0"
         id="stop4330" /><stop
         style="stop-color:#343898;stop-opacity:1"
         offset="1"
         id="stop4332" /></linearGradient><linearGradient
       inkscape:collect="always"
       xlink:href="#linearGradient4328"
       id="linearGradient4336"
       x1="121.64362"
       y1="265.60223"
       x2="410.7283"
       y2="265.60223"
       gradientUnits="userSpaceOnUse" /></defs><sodipodi:namedview
     pagecolor="#ffffff"
     bordercolor="#666666"
     borderopacity="1"
     objecttolerance="10"
     gridtolerance="10"
     guidetolerance="10"
     inkscape:pageopacity="0"
     inkscape:pageshadow="2"
     inkscape:window-width="1440"
     inkscape:window-height="788"
     id="namedview4"
     showgrid="false"
     inkscape:zoom="0.53964838"
     inkscape:cx="416.94077"
     inkscape:cy="314.26022"
     inkscape:window-x="0"
     inkscape:window-y="1"
     inkscape:window-maximized="1"
     inkscape:current-layer="g10" /><g
     id="g10"
     inkscape:groupmode="layer"
     inkscape:label="Logo"
     transform="matrix(1.25,0,0,-1.25,0,547.99995)"><g
       id="g6097"
       transform="matrix(8.1625484,0,0,8.1625484,-4009.0549,-168.79229)"><g
         id="g6081"><path
           d="m 494.0961,25.81394 c 0,-1.04866 -0.0727,-1.35358 2.001,-1.35358 1.9426,0 2.4684,1.28089 2.4684,2.15474 0,0.93146 -0.0585,2.79546 -3.4175,2.79546 -1.1246,0 -1.0519,-0.20388 -1.0519,-0.33436 l 0,-3.26226 z m 0,4.58659 c 0,-0.46609 -0.1753,-0.53806 1.1394,-0.53806 2.3952,0 2.512,0.88767 2.512,1.57218 0,1.57253 -1.3289,2.46092 -2.8044,2.46092 -0.9197,0 -0.847,-0.24803 -0.847,-1.09209 l 0,-2.40295 z m -1.1539,2.51943 c 0,1.10644 -1.2998,0.96071 -1.2998,1.25218 0,0.21805 0.2191,0.20388 0.3943,0.20388 0.2922,0 0.5843,-0.05797 1.1687,-0.05797 0.5843,0 1.1683,0.05797 2.3369,0.05797 2.5705,0 3.2132,-1.39809 3.2132,-2.47529 0,-1.48513 -1.3729,-1.96629 -1.3729,-2.06769 0,-0.2186 2.2931,-0.26221 2.2931,-2.67952 0,-0.96072 -0.7011,-3.08621 -3.5493,-3.08621 -0.5256,0 -1.4022,0.05779 -1.8987,0.05779 -0.6716,0 -1.358,-0.05779 -2.0299,-0.05779 -0.0733,0 -0.3653,0.02836 -0.3653,0.15991 0,0.14519 0.1752,0.18881 0.438,0.27657 0.1606,0.04361 0.6717,0.11666 0.6717,1.25236 l 0,7.16381 z"
           style="fill:#343797;fill-opacity:1;fill-rule:nonzero;stroke:none"
           id="path52"
           inkscape:connector-curvature="0" /><path
           d="m 505.8538,26.90601 c 0,1.49967 -0.6279,3.14489 -2.3662,3.14489 -1.4313,0 -2.0157,-1.252 -2.0157,-2.48946 0,-1.42716 0.6722,-3.29062 2.3812,-3.29062 1.2265,0 2.0007,0.8297 2.0007,2.63519 m -5.4042,0.14573 c 0,1.79131 1.4171,3.32023 3.2571,3.32023 1.11,0 3.1695,-0.53895 3.1695,-3.24719 0,-1.79113 -1.3583,-3.15979 -3.1549,-3.15979 -1.8987,0 -3.2717,1.12135 -3.2717,3.08675"
           style="fill:#343797;fill-opacity:1;fill-rule:nonzero;stroke:none"
           id="path54"
           inkscape:connector-curvature="0" /><path
           d="m 512.4408,29.30838 c 0,0.55404 -0.7741,0.20442 -0.7741,0.55404 0,0.11629 0.1897,0.13065 0.2628,0.13065 0.4238,0 0.628,0.04361 0.7887,0.08722 0.1606,0.02926 0.2922,0.07287 0.5259,0.07287 0.0585,0 0.2628,-0.07287 0.2628,-0.34943 l 0,-5.03833 c 0,-0.37814 0.9201,-0.18862 0.9201,-0.50934 0,-0.11683 -0.3064,-0.13101 -0.5403,-0.13101 -0.4088,0 -0.6133,-0.04361 -0.7885,-0.07269 -0.1611,-0.04361 -0.2776,-0.08722 -0.4968,-0.08722 -0.1169,0 -0.1313,0.15991 -0.1313,0.2177 l 0,0.80134 -0.0293,0 c -0.4528,-0.68469 -1.1683,-1.01904 -1.9426,-1.01904 -1.1682,0 -2.1322,0.71304 -2.1322,1.95104 l 0,3.3922 c 0,0.55404 -0.7743,0.20442 -0.7743,0.55404 0,0.11629 0.1901,0.13065 0.2632,0.13065 0.4232,0 0.6279,0.04361 0.7887,0.08722 0.1604,0.02926 0.292,0.07287 0.5257,0.07287 0.0581,0 0.2628,-0.07287 0.2628,-0.34943 l 0,-3.68403 c -0.0146,-1.54292 1.2267,-1.64522 1.4168,-1.64522 0.8322,0 1.5627,0.612 1.5919,1.03358 l 0,3.80032 z"
           style="fill:#343797;fill-opacity:1;fill-rule:nonzero;stroke:none"
           id="path56"
           inkscape:connector-curvature="0" /><path
           d="m 516.9832,25.3479 c 0,-1.35376 1.2999,-0.65454 1.2999,-1.12062 0,-0.13174 -0.0732,-0.16009 -0.2336,-0.16009 -0.2049,0 -0.5552,0.05797 -1.3731,0.05797 -0.9788,0 -1.2414,-0.05797 -1.3438,-0.05797 -0.1167,0 -0.1606,0.04361 -0.1606,0.13065 0,0.306 0.7447,0.24749 0.7447,0.84424 l 0,3.75689 c 0,0.87403 -1.0513,0.49498 -1.0513,0.80099 0,0.0874 0.1168,0.14591 0.1897,0.16026 1.1248,0.26221 1.417,0.7283 1.7527,0.7283 0.0877,0 0.1754,-0.08812 0.1754,-0.23313 l 0,-1.09209 0.0291,0 c 0.3068,0.4223 0.8323,1.20856 1.446,1.20856 0.3066,0 0.964,-0.37868 0.964,-0.65525 0,-0.21877 -0.3505,-0.65561 -0.5258,-0.65561 -0.2776,0 -0.4382,0.33525 -0.9641,0.33525 -0.5989,0 -0.9492,-0.66979 -0.9492,-0.85895 l 0,-3.1894 z"
           style="fill:#343797;fill-opacity:1;fill-rule:nonzero;stroke:none"
           id="path58"
           inkscape:connector-curvature="0" /><path
           d="m 522.6062,30.05099 c -1.0807,0 -1.4314,-0.84424 -1.4314,-1.7906 0,-0.91746 0.409,-1.96612 1.4899,-1.96612 1.0223,0 1.4313,0.80117 1.4313,1.73335 0,0.91692 -0.3944,2.02337 -1.4898,2.02337 m -0.219,-8.54683 c 2.0008,0 2.4246,0.91693 2.4246,1.44134 0,0.61111 -0.5111,0.64072 -2.0155,0.68433 -1.2273,0.04361 -1.4168,0.14573 -1.5337,0.14573 -0.4529,0 -0.7157,-0.66961 -0.7157,-1.04865 0,-0.97544 1.0369,-1.22275 1.8403,-1.22275 m 2.2199,8.28534 c 0.7012,0 0.7743,0.93182 0.9786,0.93182 0.1316,0 0.117,-0.14574 0.117,-0.23278 0,-1.1217 -0.2191,-1.18021 -0.7597,-1.51475 0.0585,-0.24731 0.1023,-0.50952 0.1023,-0.77191 0,-1.38301 -1.0953,-2.22796 -2.4244,-2.22796 -0.7449,0 -0.818,0.11683 -1.0077,0.11683 -0.3506,0 -0.7011,-0.46609 -0.7011,-0.80062 0,-0.11648 -0.117,-0.69905 1.7236,-0.69905 1.2266,0 2.8769,0.14573 2.8769,-1.29579 0,-0.91782 -0.7739,-2.12638 -3.213,-2.12638 -0.9347,0 -2.4683,0.34943 -2.4683,1.54382 0,0.59674 0.5548,1.0334 1.0661,1.22292 -0.409,0.15991 -0.555,0.65543 -0.555,1.15078 0,0.58167 0.7449,1.17913 0.7597,1.17913 l 0,0.02871 c -0.5991,0.36451 -0.9349,1.07774 -0.9349,1.79114 0,1.32522 1.0515,2.28647 2.3515,2.28647 1.2124,0 1.6794,-0.58238 2.0884,-0.58238"
           style="fill:#343797;fill-opacity:1;fill-rule:nonzero;stroke:none"
           id="path60"
           inkscape:connector-curvature="0" /><path
           d="m 527.429,27.92921 c 0.0814,0.03123 0.1689,0.07484 0.2126,0.07484 0.0688,0 0.0564,-0.11253 0.0564,-0.14968 0,-0.22452 0.0185,-0.21806 -0.1691,-0.28033 l -0.9503,-0.33669 c -0.0812,-0.03123 -0.1687,-0.07466 -0.2124,-0.07466 -0.069,0 -0.0564,0.09942 -0.0564,0.13711 0,0.23655 -0.0187,0.23045 0.1691,0.29308 l 0.9501,0.33633 z"
           style="fill:#343797;fill-opacity:1;fill-rule:nonzero;stroke:none"
           id="path62"
           inkscape:connector-curvature="0" /><path
           d="m 529.1545,26.68238 c 0,-0.42983 0.519,-0.24964 0.519,-0.41727 0,-0.07484 -0.0498,-0.08722 -0.144,-0.08722 -0.0873,0 -0.281,0.02458 -0.5751,0.02458 -0.3063,0 -0.4251,-0.02458 -0.4877,-0.02458 -0.0499,0 -0.0749,0.02458 -0.0749,0.08058 0,0.09368 0.3064,0.07502 0.3064,0.34315 l 0,3.5216 c 0,0.37438 -0.425,0.2116 -0.425,0.34316 0,0.03697 0.0248,0.06173 0.0563,0.06819 0.4814,0.112 0.6063,0.31175 0.75,0.31175 0.0376,0 0.075,-0.03769 0.075,-0.09961 l 0,-4.06433 z"
           style="fill:#343797;fill-opacity:1;fill-rule:nonzero;stroke:none"
           id="path64"
           inkscape:connector-curvature="0" /><path
           d="m 531.6118,27.54275 c -0.4002,-0.08722 -1.1631,-0.18683 -1.1631,-0.73565 0,-0.35518 0.1815,-0.49265 0.5129,-0.49265 0.2248,0 0.6502,0.17516 0.6502,0.50521 l 0,0.72309 z m 0,0.62941 c 0,0.32395 -0.2561,0.54201 -0.6441,0.54201 -0.2999,0 -0.5438,-0.03069 -0.5438,-0.37348 0,-0.09369 0.0376,-0.18701 0.0376,-0.25575 0,-0.06838 -0.0189,-0.11863 -0.1377,-0.11863 -0.1062,0 -0.2938,0.09386 -0.2938,0.20585 0.006,0.2868 0.3564,0.72292 1.0504,0.70479 0.3876,0 0.9878,-0.11253 0.9878,-0.64251 l 0,-1.28987 c 0,-0.21213 -0.0562,-0.57987 0.2689,-0.57987 0.0249,0 0.0812,0.01238 0.1061,0.01238 0.0313,0 0.0813,0 0.0813,-0.04361 0,-0.13101 -0.2749,-0.15542 -0.3627,-0.15542 -0.2438,0 -0.4063,0.11181 -0.4875,0.31748 -0.2625,-0.22469 -0.6063,-0.36127 -0.9565,-0.36127 -0.4065,0 -0.6754,0.14968 -0.6754,0.59172 0,0.33041 0.1066,0.72309 1.5694,0.96645 l 0,0.47973 z"
           style="fill:#343797;fill-opacity:1;fill-rule:nonzero;stroke:none"
           id="path66"
           inkscape:connector-curvature="0" /><path
           d="m 534.025,27.92921 c 0.0814,0.03123 0.1688,0.07484 0.2126,0.07484 0.0688,0 0.0565,-0.11253 0.0565,-0.14968 0,-0.22452 0.0186,-0.21806 -0.169,-0.28033 l -0.9504,-0.33669 c -0.0812,-0.03123 -0.1688,-0.07466 -0.2124,-0.07466 -0.0689,0 -0.0565,0.09942 -0.0565,0.13711 0,0.23655 -0.0186,0.23045 0.169,0.29308 l 0.9502,0.33633 z"
           style="fill:#343797;fill-opacity:1;fill-rule:nonzero;stroke:none"
           id="path68"
           inkscape:connector-curvature="0" /><path
           d="m 537.243,29.65803 c 0,-0.27674 0.9062,-0.20388 1.593,-0.20388 0.6279,0 2.0295,0.26239 2.0295,2.06788 0,1.77606 -1.3586,2.37352 -2.7896,2.37352 -0.526,0 -0.8329,0.02872 -0.8329,-0.53895 l 0,-3.69857 z m 5.3167,-4.0042 c 1.0517,-1.60143 1.7673,-1.06266 1.7673,-1.41245 0,-0.17409 -0.818,-0.17409 -0.9492,-0.17409 -1.0661,0 -1.6354,0.74158 -2.1909,1.57218 l -1.6213,2.54815 c -0.526,0.8157 -0.3067,0.77191 -1.9428,0.77191 -0.4673,0 -0.3798,-0.26239 -0.3798,-0.40794 l 0,-3.07203 c 0,-1.25236 1.5197,-0.80134 1.5197,-1.29669 0,-0.14501 -0.1318,-0.11558 -0.2486,-0.11558 -0.1312,0 -0.4675,0.05779 -1.6798,0.05779 -0.555,0 -1.1098,-0.05779 -1.6648,-0.05779 -0.0879,0 -0.1462,0.07197 -0.1462,0.15991 0,0.36397 1.0664,0.16009 1.0664,1.26654 l 0,7.4113 c 0,1.39809 -1.256,0.80117 -1.256,1.29579 0,0.08794 0.1169,0.17517 0.292,0.17517 0.2629,0 0.1898,-0.05797 0.9347,-0.05797 0.847,0 1.68,0.05797 2.4386,0.05797 0.2336,0 3.462,0.29074 3.462,-2.51889 0,-1.1357 -0.8179,-2.11132 -1.8402,-2.51944 l 2.4389,-3.68384 z"
           style="fill:#343797;fill-opacity:1;fill-rule:nonzero;stroke:none"
           id="path70"
           inkscape:connector-curvature="0" /><path
           d="m 548.8107,28.20194 c 0.2045,0 0.2918,0.07286 0.2918,0.29164 0,0.8148 -0.8173,1.5431 -1.6204,1.5431 -0.906,0 -1.5483,-1.0334 -1.5483,-1.83474 l 2.8769,0 z m -2.8769,-0.39305 c 0,-2.40241 1.4601,-3.11563 2.3514,-3.11563 1.256,0 1.7378,0.75683 2.0591,0.75683 0.0587,0 0.0587,-0.05851 0.0587,-0.10212 0,-0.33471 -1.2704,-1.38283 -2.5853,-1.38283 -2.1911,0 -2.95,2.02391 -2.95,2.98444 0,1.86418 1.0365,3.42236 2.8625,3.42236 1.7968,0 2.5853,-1.73317 2.5853,-2.31573 0,-0.26167 -0.1606,-0.24732 -0.4969,-0.24732 l -3.8848,0 z"
           style="fill:#343797;fill-opacity:1;fill-rule:nonzero;stroke:none"
           id="path72"
           inkscape:connector-curvature="0" /><path
           d="m 553.5575,32.59971 c 0,-0.17517 -0.4237,-0.75755 -0.6137,-0.75755 -0.1749,0 -0.6137,0.59674 -0.6137,0.75755 0,0.16027 0.4388,0.77137 0.6137,0.77137 0.19,0 0.6137,-0.59693 0.6137,-0.77137 m -1.1391,-3.80086 c 0,0.87402 -0.8038,0.49516 -0.8038,0.80116 0,0.08722 0.0586,0.14591 0.1317,0.16027 0.9351,0.26221 1.2269,0.72812 1.5632,0.72812 0.0873,0 0.1749,-0.08795 0.1749,-0.23314 l 0,-5.22731 c 0,-0.74283 1.1543,-0.42265 1.1543,-0.80062 0,-0.11648 -0.0874,-0.16009 -0.2781,-0.16009 -0.3069,0 -0.7593,0.05779 -1.3581,0.05779 -0.4673,0 -0.8473,-0.05779 -1.0079,-0.05779 -0.1169,0 -0.2043,0.01418 -0.2193,0.16009 0,0.36379 0.6431,-0.18952 0.6431,1.13552 l 0,3.436 z"
           style="fill:#343797;fill-opacity:1;fill-rule:nonzero;stroke:none"
           id="path74"
           inkscape:connector-curvature="0" /><path
           d="m 557.2819,25.24643 c 0,-1.00505 1.2856,-0.58239 1.2856,-0.97561 0,-0.17517 -0.1027,-0.20353 -0.3214,-0.20353 -0.2486,0 -0.5404,0.05779 -1.388,0.05779 -0.774,0 -1.0659,-0.05779 -1.2416,-0.05779 -0.1893,0 -0.2624,0.02836 -0.2624,0.17409 0,0.29093 0.8617,0 0.8617,0.94654 l 0,3.61098 c 0,0.87403 -1.0812,0.49516 -1.0812,0.80116 0,0.08723 0.0587,0.14573 0.1322,0.16009 1.2115,0.26221 1.504,0.7283 1.8394,0.7283 0.0877,0 0.1757,-0.08794 0.1757,-0.23313 l 0,-0.96126 c -0.0293,-0.17444 0.7005,1.07791 2.1178,1.07791 1.9567,0 2.381,-1.61668 2.381,-2.72313 l 0,-2.40241 c 0,-1.00505 1.1384,-0.58239 1.1384,-0.97561 0,-0.17517 -0.1017,-0.20353 -0.2479,-0.20353 -0.1893,0 -0.555,0.05779 -1.2704,0.05779 -0.555,0 -0.8617,-0.05779 -1.0518,-0.05779 -0.19,0 -0.2631,0.02836 -0.2631,0.17409 0,0.29093 0.628,0 0.628,0.94654 l 0,2.72313 c 0,0.72758 -0.5253,1.81967 -1.7085,1.81967 -1.2266,0 -1.7384,-0.90257 -1.7235,-1.1357 l 0,-3.34859 z"
           style="fill:#343797;fill-opacity:1;fill-rule:nonzero;stroke:none"
           id="path76"
           inkscape:connector-curvature="0" /><path
           d="m 567.4762,28.20194 c 0.205,0 0.2924,0.07286 0.2924,0.29164 0,0.8148 -0.8173,1.5431 -1.621,1.5431 -0.9055,0 -1.5478,-1.0334 -1.5478,-1.83474 l 2.8764,0 z m -2.8764,-0.39305 c 0,-2.40241 1.4596,-3.11563 2.3515,-3.11563 1.2562,0 1.7377,0.75683 2.0591,0.75683 0.0588,0 0.0588,-0.05851 0.0588,-0.10212 0,-0.33471 -1.2711,-1.38283 -2.5856,-1.38283 -2.1909,0 -2.9506,2.02391 -2.9506,2.98444 0,1.86418 1.0366,3.42236 2.8627,3.42236 1.7966,0 2.5851,-1.73317 2.5851,-2.31573 0,-0.26167 -0.1604,-0.24732 -0.4967,-0.24732 l -3.8843,0 z"
           style="fill:#343797;fill-opacity:1;fill-rule:nonzero;stroke:none"
           id="path78"
           inkscape:connector-curvature="0" /></g><g
         id="g6072"><path
           d="m 501.2924,31.71916 0.2843,0.60931 c 0.0807,0.16906 0.1869,0.34746 0.1869,0.53752 0,0.2369 -0.2632,0.11845 -0.2632,0.2247 0,0.05061 0.0466,0.05438 0.1019,0.05438 0.0891,0 0.1701,-0.01669 0.2633,-0.01669 0.0722,0 0.1486,0.01669 0.2207,0.01669 0.0425,0 0.1145,-0.0038 0.1145,-0.063 0,-0.05545 -0.1526,-0.02997 -0.212,-0.15685 l -0.6497,-1.37135 c -0.0805,-0.17319 -0.0805,-0.22452 -0.1442,-0.22452 -0.0553,0 -0.0724,0.07215 -0.0852,0.10212 l -0.641,1.45983 c -0.0807,0.19077 -0.2335,0.12688 -0.2335,0.20316 0,0.02979 0.004,0.05061 0.0891,0.05061 0.0806,0 0.0806,-0.01669 0.3609,-0.01669 0.1572,0 0.2123,0.01669 0.2632,0.01669 0.0594,0 0.0976,0 0.0976,-0.04612 0,-0.08454 -0.2418,-0.02998 -0.2418,-0.15686 0,-0.01239 0.0211,-0.08005 0.072,-0.20711 l 0.4162,-1.01582 z"
           style="fill:#343797;fill-opacity:1;fill-rule:nonzero;stroke:none"
           id="path80"
           inkscape:connector-curvature="0" /><path
           d="m 502.8505,33.83954 c 0,-0.05061 -0.1231,-0.21986 -0.1782,-0.21986 -0.051,0 -0.1782,0.17301 -0.1782,0.21986 0,0.0463 0.1272,0.2247 0.1782,0.2247 0.0551,0 0.1782,-0.17391 0.1782,-0.2247 m -0.3309,-1.10447 c 0,0.25395 -0.2338,0.14375 -0.2338,0.23259 0,0.02513 0.0169,0.04218 0.0381,0.04666 0.2721,0.07628 0.3568,0.2116 0.4544,0.2116 0.0256,0 0.051,-0.02548 0.051,-0.06784 l 0,-1.51977 c 0,-0.21519 0.3355,-0.12222 0.3355,-0.23224 0,-0.03392 -0.0255,-0.04684 -0.0806,-0.04684 -0.0893,0 -0.2211,0.01687 -0.395,0.01687 -0.1357,0 -0.2461,-0.01687 -0.2927,-0.01687 -0.0342,0 -0.0598,0.0039 -0.0641,0.04684 0,0.10535 0.1872,-0.05527 0.1872,0.33005 l 0,0.99895 z"
           style="fill:#343797;fill-opacity:1;fill-rule:nonzero;stroke:none"
           id="path82"
           inkscape:connector-curvature="0" /><path
           d="m 503.7887,31.70235 c 0,-0.29236 0.3525,-0.16925 0.3525,-0.28393 0,-0.05079 -0.0341,-0.05922 -0.0976,-0.05922 -0.06,0 -0.1914,0.01705 -0.3907,0.01705 -0.2081,0 -0.2889,-0.01705 -0.3314,-0.01705 -0.034,0 -0.0508,0.01705 -0.0508,0.05527 0,0.06318 0.2082,0.05097 0.2082,0.23242 l 0,2.392 c 0,0.25378 -0.289,0.14376 -0.289,0.23224 0,0.02531 0.0171,0.04236 0.0382,0.04684 0.3271,0.0761 0.4121,0.2116 0.5096,0.2116 0.0254,0 0.051,-0.02548 0.051,-0.06766 l 0,-2.75956 z"
           style="fill:#343797;fill-opacity:1;fill-rule:nonzero;stroke:none"
           id="path84"
           inkscape:connector-curvature="0" /><path
           d="m 504.7568,31.70235 c 0,-0.29236 0.3525,-0.16925 0.3525,-0.28393 0,-0.05079 -0.0339,-0.05922 -0.0976,-0.05922 -0.0597,0 -0.1912,0.01705 -0.3906,0.01705 -0.208,0 -0.289,-0.01705 -0.3314,-0.01705 -0.0341,0 -0.0508,0.01705 -0.0508,0.05527 0,0.06318 0.2081,0.05097 0.2081,0.23242 l 0,2.392 c 0,0.25378 -0.2889,0.14376 -0.2889,0.23224 0,0.02531 0.0171,0.04236 0.0381,0.04684 0.3271,0.0761 0.4121,0.2116 0.5097,0.2116 0.0253,0 0.0509,-0.02548 0.0509,-0.06766 l 0,-2.75956 z"
           style="fill:#343797;fill-opacity:1;fill-rule:nonzero;stroke:none"
           id="path86"
           inkscape:connector-curvature="0" /><path
           d="m 506.2597,32.56132 c 0.0594,0 0.0848,0.02082 0.0848,0.08471 0,0.23672 -0.2377,0.4485 -0.4713,0.4485 -0.2631,0 -0.4499,-0.30008 -0.4499,-0.53321 l 0.8364,0 z m -0.8364,-0.11451 c 0,-0.69832 0.4243,-0.90543 0.6835,-0.90543 0.3649,0 0.5054,0.22003 0.5988,0.22003 0.0169,0 0.0169,-0.01687 0.0169,-0.02979 0,-0.0971 -0.3696,-0.4022 -0.7514,-0.4022 -0.6369,0 -0.858,0.58813 -0.858,0.86811 0,0.54147 0.3017,0.99463 0.8321,0.99463 0.5224,0 0.7519,-0.50378 0.7519,-0.67302 0,-0.07627 -0.0468,-0.07233 -0.1447,-0.07233 l -1.1291,0 z"
           style="fill:#343797;fill-opacity:1;fill-rule:nonzero;stroke:none"
           id="path88"
           inkscape:connector-curvature="0" /><path
           d="m 508.981,32.60355 c 0,0.313 -0.2545,0.49085 -0.5604,0.49085 -0.3989,0 -0.5772,-0.3724 -0.5772,-0.72381 0,-0.35087 0.2546,-0.85913 0.658,-0.85913 0.3523,0 0.4796,0.21608 0.4796,0.36846 l 0,0.72363 z m 0,1.43524 c 0,0.25377 -0.3352,0.14393 -0.3352,0.23223 0,0.02549 0.0169,0.04236 0.0382,0.04703 0.3267,0.07609 0.4587,0.21141 0.5561,0.21141 0.0255,0 0.0511,-0.0253 0.0511,-0.06766 l 0,-2.89488 c 0,-0.05097 0.0848,-0.08471 0.2248,-0.10607 0.0297,-0.0041 0.0467,-0.0041 0.0467,-0.03769 0,-0.03015 -0.1102,-0.05994 -0.2672,-0.05994 -0.1105,0 -0.2297,-0.03392 -0.2679,-0.03392 -0.034,0 -0.0466,0.03392 -0.0466,0.06371 l 0,0.23313 -0.008,0 c -0.1443,-0.18234 -0.3776,-0.29684 -0.6241,-0.29684 -0.4668,0 -0.7512,0.4275 -0.7512,0.86362 0,0.49983 0.3523,0.99912 0.8873,0.99912 0.1782,0 0.3521,-0.05079 0.4965,-0.14843 l 0,0.99518 z"
           style="fill:#343797;fill-opacity:1;fill-rule:nonzero;stroke:none"
           id="path90"
           inkscape:connector-curvature="0" /><path
           d="m 510.6921,32.56132 c 0.0594,0 0.085,0.02082 0.085,0.08471 0,0.23672 -0.2377,0.4485 -0.4715,0.4485 -0.263,0 -0.4497,-0.30008 -0.4497,-0.53321 l 0.8362,0 z m -0.8362,-0.11451 c 0,-0.69832 0.4241,-0.90543 0.6835,-0.90543 0.3649,0 0.5052,0.22003 0.5986,0.22003 0.0169,0 0.0169,-0.01687 0.0169,-0.02979 0,-0.0971 -0.3694,-0.4022 -0.7514,-0.4022 -0.6369,0 -0.8578,0.58813 -0.8578,0.86811 0,0.54147 0.3017,0.99463 0.8322,0.99463 0.5221,0 0.7516,-0.50378 0.7516,-0.67302 0,-0.07627 -0.0468,-0.07233 -0.1447,-0.07233 l -1.1289,0 z"
           style="fill:#343797;fill-opacity:1;fill-rule:nonzero;stroke:none"
           id="path92"
           inkscape:connector-curvature="0" /></g></g><g
       id="g4314"
       style="fill:url(#linearGradient4336);fill-opacity:1"><path
         id="path6136"
         d="M 231.67468,397.86815 C 193.7923,343.18723 238.4496,288.48183 238.4496,288.48183 l 0,0 c 24.25093,-35.62952 29.88309,-79.37262 30.91973,-89.81252 l 0,0 -18.05556,0 -10.10523,57.17866 c -16.24347,60.99056 -71.38149,53.36674 -71.38149,53.36674 l 0,0 c -30.38916,-2.53856 -40.87804,-13.23966 -44.15938,-22.38987 l 0,0 c -0.0735,-0.0408 -0.13877,-0.0979 -0.16325,-0.15509 l 0,0 c -21.141,-63.27608 51.43221,-75.39746 51.43221,-75.39746 l 0,0 -0.36731,1.15908 0.0163,0 c -0.0327,0.0898 -0.0571,0.15509 -0.0898,0.23671 l 0,0 -2.30184,7.50139 c -3.34665,16.83117 9.16654,21.42669 9.16654,21.42669 l 0,0 c 38.36398,13.50901 54.42787,-32.30737 57.58678,-42.92685 l 0,0 -42.37179,0 39.36797,-12.42339 8.1299,0 c -2.34265,-9.87669 -13.19068,-30.91974 -62.32922,-44.25734 l 0,0 c 0,0 61.92109,-2.48142 85.25782,29.34436 l 0,0 c 0,0 -28.62606,-46.1184 11.94997,-74.450605 l 0,0 0,95.501815 -0.0571,0 0,0.62036 0.0571,-0.0163 0.12244,241.33391 c -30.97688,-10.48888 -49.39975,-36.45394 -49.39975,-36.45394"
         style="fill:url(#linearGradient4336);fill-opacity:1"
         inkscape:connector-curvature="0" /><path
         id="path6132"
         d="m 291.76732,120.65171 c 0,0 36.04582,5.24851 76.49941,42.50239 l 0,0 c 0,0 39.57203,37.70281 42.20854,64.44332 l 0,0 0.25303,184.96334 -119.08341,0.14693 0.12243,-292.05598 z"
         style="fill:url(#linearGradient4336);fill-opacity:1"
         inkscape:connector-curvature="0" /></g><g
       id="g5998"
       transform="matrix(8.1625484,0,0,8.1625484,-4009.0549,-168.79229)"><g
         id="g5950"><path
           style="fill:#f1ed3e;fill-opacity:1;fill-rule:nonzero;stroke:none"
           d="m 529.06094,68.677504 c 0,0 0.10862,-0.188448 -0.15938,-0.739064 0,0 -0.003,-0.02862 -0.005,-0.05 -0.0155,-0.04214 -0.0346,-0.08144 -0.0328,-0.132816 2e-4,-0.0061 0.004,-0.0096 0.005,-0.01562 -1.5e-4,-0.0071 -0.005,-0.01154 -0.005,-0.01875 3.2e-4,-0.0099 0.008,-0.01535 0.009,-0.025 -6e-5,-0.006 -0.005,-0.0095 -0.005,-0.01562 8.7e-4,-0.02713 0.0187,-0.04402 0.025,-0.06875 0.002,-0.01726 -10e-4,-0.03411 0.003,-0.05156 0.005,-0.01879 0.0219,-0.02683 0.0297,-0.04375 0.01,-0.01534 0.0148,-0.03284 0.0266,-0.04531 0.0141,-0.02918 0.0334,-0.0537 0.0562,-0.075 0.004,-0.0033 0.006,-0.0095 0.0109,-0.0125 0.01,-0.0081 0.0232,-0.01092 0.0344,-0.01719 3.9e-4,-4.48e-4 0.006,-0.01094 0.006,-0.01094 0.007,-10e-4 0.0109,7.44e-4 0.0172,0 0.0109,-0.0045 0.0195,-0.01287 0.0312,-0.01562 0.0988,-0.02415 0.18498,0.0369 0.24531,0.125 0.002,0.0025 0.003,0.0052 0.005,0.0078 0.10618,0.1426 0.10468,0.359368 0.10468,0.359368 -0.0406,0.544344 -0.40312,0.845312 -0.40312,0.84532 z"
           id="path5936"
           inkscape:connector-curvature="0" /><path
           style="fill:#f1ed3e;fill-opacity:1;fill-rule:nonzero;stroke:none"
           d="m 529.99375,67.260312 c 0,0 -0.15385,0.0027 -0.28906,-0.05625 -0.14444,-0.0421 -0.23483,-0.172112 -0.20469,-0.3 0.003,-0.01186 0.011,-0.02027 0.0156,-0.03125 7e-4,-0.0058 -9.2e-4,-0.0096 0,-0.01563 0,0 0.0105,-0.0059 0.0109,-0.0062 0.006,-0.01134 0.0105,-0.02586 0.0187,-0.03594 0.0388,-0.05646 0.10218,-0.102408 0.17813,-0.121872 0.0113,-0.0028 0.0201,0.0047 0.0312,0.0031 0.0304,-0.0097 0.0529,-0.0301 0.0875,-0.03125 0.006,-2e-4 0.01,0.0046 0.0156,0.0047 0.01,-0.0011 0.0151,-0.009 0.025,-0.0094 0.007,-2.4e-4 0.0117,0.0045 0.0187,0.0047 0.007,-5.36e-4 0.0105,-0.0045 0.0172,-0.0047 0.0523,-0.0017 0.0929,0.01952 0.13594,0.03594 0.018,0.002 0.0453,0.0031 0.0453,0.0031 0.5534,0.268128 0.74218,0.157808 0.74218,0.157808 0,0 -0.30293,0.362752 -0.84843,0.403128 z"
           id="path5930"
           inkscape:connector-curvature="0" /><path
           style="fill:#f1ed3e;fill-opacity:1;fill-rule:nonzero;stroke:none"
           d="m 528.3375,67.255624 c -0.5459,-0.04056 -0.84844,-0.404688 -0.84844,-0.404688 0,0 0.18832,0.111704 0.74063,-0.156248 0,0 0.0272,-0.0028 0.0438,-0.0047 0.0436,-0.01694 0.0853,-0.03772 0.13906,-0.03594 0.007,2.88e-4 0.0105,0.0056 0.0172,0.0062 0.007,-1.76e-4 0.0114,-0.0065 0.0187,-0.0062 0.0105,4.4e-4 0.0164,0.0081 0.0266,0.0094 0.005,-4.8e-5 0.009,-0.0033 0.0141,-0.0031 0.0347,0.0011 0.057,0.02157 0.0875,0.03125 0.0117,0.0017 0.0211,-0.0061 0.0328,-0.0031 0.0188,0.005 0.0268,0.02194 0.0438,0.02969 0.0154,0.0096 0.0328,0.01479 0.0453,0.02656 0.0341,0.01622 0.0661,0.03774 0.0891,0.06562 0.008,0.0099 0.0109,0.02326 0.0172,0.03438 4.5e-4,3.92e-4 0.0109,0.0062 0.0109,0.0062 9.2e-4,0.0059 -6.9e-4,0.0099 0,0.01562 0.005,0.01121 0.0128,0.02067 0.0156,0.03282 0.0319,0.12972 -0.063,0.262984 -0.21094,0.30312 -0.13365,0.05585 -0.28281,0.05313 -0.28281,0.05313 z"
           id="path5924"
           inkscape:connector-curvature="0" /><path
           style="fill:#f1ed3e;fill-opacity:1;fill-rule:nonzero;stroke:none"
           d="m 529.14844,66.900936 c -0.2697,-2.900088 -1.64375,-4.106248 -1.64375,-4.106248 0.0819,0 0.91718,0.37344 0.91718,0.37344 0.0803,-0.213576 -0.16249,-1.126568 -0.16249,-1.126568 0.1078,0 0.59375,0.564064 0.59375,0.564064 l 0.35,-1.075 0.21562,1.10156 0.64531,-0.456248 c -0.1622,0.214648 -0.16093,1.153128 -0.16093,1.153128 0.21529,-0.213392 0.88905,-0.428128 0.88905,-0.428128 -0.0724,0.02847 -0.14217,0.06933 -0.20936,0.120312 -1.00799,0.764744 -1.43438,3.879688 -1.43438,3.879688 z"
           id="path5918"
           inkscape:connector-curvature="0" /></g><g
         id="g5944"><path
           style="fill:#f1ed3e;fill-opacity:1;fill-rule:nonzero;stroke:none"
           d="m 533.82813,68.677504 c 0,0 0.10909,-0.188448 -0.15782,-0.739064 0,0 -0.003,-0.02683 -0.005,-0.04375 -0.017,-0.04351 -0.0378,-0.08522 -0.0359,-0.139064 1.9e-4,-0.0061 0.004,-0.0096 0.005,-0.01562 -1.6e-4,-0.0071 -0.005,-0.01154 -0.005,-0.01875 3.2e-4,-0.0099 0.008,-0.01538 0.009,-0.025 -8e-5,-0.006 -0.005,-0.0095 -0.005,-0.01562 10e-4,-0.0295 0.0192,-0.04839 0.0266,-0.075 0.002,-0.01522 -8.1e-4,-0.02997 0.003,-0.04531 0.004,-0.01678 0.0199,-0.02376 0.0266,-0.03906 0.0115,-0.01899 0.0182,-0.03999 0.0328,-0.05469 0.0155,-0.03101 0.0337,-0.05811 0.0594,-0.07969 0,0 0.002,-0.0016 0.002,-0.0016 0,0 0.002,-0.0016 0.002,-0.0016 0.0103,-0.0083 0.0242,-0.01076 0.0359,-0.01719 3.9e-4,-4.48e-4 0.006,-0.01094 0.006,-0.01094 0.006,-9.28e-4 0.01,7.04e-4 0.0156,0 0.0109,-0.0045 0.0194,-0.01287 0.0312,-0.01562 0.12842,-0.03145 0.2601,0.06054 0.30156,0.203128 0.059,0.134776 0.0563,0.289056 0.0563,0.289056 -0.0408,0.544344 -0.40469,0.84532 -0.40469,0.84532 z"
           id="path5934"
           inkscape:connector-curvature="0" /><path
           style="fill:#f1ed3e;fill-opacity:1;fill-rule:nonzero;stroke:none"
           d="m 534.76094,67.260312 c 0,0 -0.21788,-8e-6 -0.36094,-0.106248 -0.003,-0.0015 -0.005,-0.0046 -0.008,-0.0062 0,0 -0.002,0 -0.002,0 -0.0866,-0.06052 -0.14788,-0.146632 -0.125,-0.243752 0.003,-0.01248 0.0122,-0.02131 0.0172,-0.03282 6.4e-4,-0.0052 -8.4e-4,-0.0087 0,-0.01406 0,0 0.0105,-0.0059 0.0109,-0.0062 0.006,-0.01125 0.0106,-0.02594 0.0187,-0.03594 0.039,-0.05646 0.10152,-0.102408 0.17812,-0.121872 0.0112,-0.0028 0.0201,0.0047 0.0312,0.0031 0.0305,-0.0097 0.0527,-0.0301 0.0875,-0.03125 0.006,-2e-4 0.01,0.0046 0.0156,0.0047 0.01,-0.0011 0.015,-0.009 0.025,-0.0094 0.008,-2.56e-4 0.0128,0.0045 0.0203,0.0047 0.006,-4.72e-4 0.01,-0.0045 0.0156,-0.0047 0.0527,-0.0017 0.0929,0.01952 0.13593,0.03594 0.018,0.002 0.0453,0.0031 0.0453,0.0031 0.5536,0.268128 0.7422,0.157808 0.7422,0.157808 0,0 -0.30314,0.362752 -0.84844,0.403128 z"
           id="path5928"
           inkscape:connector-curvature="0" /><path
           style="fill:#f1ed3e;fill-opacity:1;fill-rule:nonzero;stroke:none"
           d="m 533.10313,67.255624 c -0.54511,-0.04056 -0.84844,-0.404688 -0.84844,-0.404688 0,0 0.19058,0.111704 0.74218,-0.156248 0,0 0.0273,-0.0028 0.0438,-0.0047 0.0434,-0.01694 0.0853,-0.03772 0.13907,-0.03594 0.007,2.88e-4 0.0105,0.0056 0.0172,0.0062 0.007,-1.68e-4 0.0114,-0.0065 0.0187,-0.0062 0.0105,4.4e-4 0.0164,0.0081 0.0266,0.0094 0.005,-2.4e-5 0.008,-0.0033 0.0125,-0.0031 0.035,0.0012 0.0583,0.02142 0.0891,0.03125 0.0112,0.0017 0.02,-0.006 0.0312,-0.0031 0.0182,0.0048 0.0257,0.02225 0.0422,0.02969 0.0166,0.01017 0.0367,0.01397 0.05,0.02656 0.0335,0.01617 0.0647,0.0381 0.0875,0.06562 0.008,0.0099 0.0109,0.02326 0.0172,0.03438 4.6e-4,3.92e-4 0.0109,0.0062 0.0109,0.0062 9e-4,0.0059 -6.9e-4,0.0099 0,0.01562 0.005,0.01121 0.0127,0.02067 0.0156,0.03282 0.0271,0.112552 -0.0513,0.21684 -0.16562,0.271872 -0.14245,0.08286 -0.32969,0.08438 -0.32969,0.08438 z"
           id="path5922"
           inkscape:connector-curvature="0" /><path
           style="fill:#f1ed3e;fill-opacity:1;fill-rule:nonzero;stroke:none"
           d="m 533.91562,66.900936 c -0.26889,-2.900088 -1.64218,-4.106248 -1.64218,-4.106248 0.0812,0 0.91562,0.37344 0.91562,0.37344 0.0808,-0.213576 -0.16093,-1.126568 -0.16093,-1.126568 0.10669,0 0.59218,0.564064 0.59218,0.564064 l 0.35,-1.075 0.21563,1.10156 0.64531,-0.456248 c -0.1618,0.214648 -0.16094,1.153128 -0.16094,1.153128 0.21551,-0.213392 0.88751,-0.428128 0.88751,-0.428128 -0.0724,0.02847 -0.1422,0.06933 -0.20938,0.120312 -1.00785,0.764744 -1.43282,3.879688 -1.43282,3.879688 z"
           id="path5916"
           inkscape:connector-curvature="0" /></g><g
         id="g5938"><path
           style="fill:#f1ed3e;fill-opacity:1;fill-rule:nonzero;stroke:none"
           d="m 539.02656,68.677504 c 0,0 0.10833,-0.188448 -0.15938,-0.739064 0,0 -10e-4,-0.02636 -0.003,-0.04219 -0.0175,-0.04387 -0.0377,-0.08612 -0.0359,-0.140624 2.3e-4,-0.0061 0.004,-0.0096 0.005,-0.01562 -1.7e-4,-0.0071 -0.005,-0.01154 -0.005,-0.01875 3.7e-4,-0.0099 0.008,-0.01538 0.009,-0.025 -8e-5,-0.006 -0.005,-0.0095 -0.005,-0.01562 10e-4,-0.03629 0.0222,-0.06051 0.0328,-0.09218 0.002,-0.01 -0.006,-0.0181 -0.003,-0.02813 0.0196,-0.07547 0.0638,-0.136456 0.12032,-0.175 0,0 0.002,-0.0016 0.002,-0.0016 0.0103,-0.0083 0.0243,-0.01076 0.0359,-0.01719 3.9e-4,-4.48e-4 0.006,-0.01094 0.006,-0.01094 0.006,-9.28e-4 0.01,7.04e-4 0.0156,0 0.0109,-0.0045 0.0195,-0.01287 0.0313,-0.01562 0.1289,-0.03145 0.25986,0.06054 0.30156,0.203128 0.0584,0.134776 0.0531,0.289056 0.0531,0.289056 -0.0391,0.544344 -0.40157,0.84532 -0.40157,0.84532 z"
           id="path5932"
           inkscape:connector-curvature="0" /><path
           style="fill:#f1ed3e;fill-opacity:1;fill-rule:nonzero;stroke:none"
           d="m 539.95938,67.260312 c 0,0 -0.21456,2.72e-4 -0.35782,-0.103128 0,0 -0.002,-0.0016 -0.002,-0.0016 -0.005,-0.0023 -0.008,-0.0068 -0.0125,-0.0094 -0.003,-0.0024 -0.006,-0.0037 -0.009,-0.0062 -0.0802,-0.061 -0.13659,-0.142728 -0.11407,-0.235936 0.003,-0.01248 0.0122,-0.02131 0.0172,-0.03282 6.5e-4,-0.0052 -8.4e-4,-0.0087 0,-0.01406 0,0 0.0105,-0.0059 0.0109,-0.0062 0.006,-0.01125 0.0106,-0.02594 0.0188,-0.03594 0.0389,-0.05646 0.10046,-0.102408 0.17656,-0.121872 0.0112,-0.0028 0.0201,0.0047 0.0312,0.0031 0.0308,-0.0098 0.0538,-0.03009 0.0891,-0.03125 0.006,-2e-4 0.01,0.0046 0.0156,0.0047 0.01,-0.0011 0.0151,-0.009 0.025,-0.0094 0.007,-2.4e-4 0.0116,0.0045 0.0187,0.0047 0.006,-4.72e-4 0.01,-0.0045 0.0156,-0.0047 0.0529,-0.0017 0.093,0.01952 0.13593,0.03594 0.0185,0.002 0.0469,0.0031 0.0469,0.0031 0.553,0.268128 0.7422,0.157808 0.7422,0.157808 0,0 -0.30335,0.362752 -0.84844,0.403128 z"
           id="path5926"
           inkscape:connector-curvature="0" /><path
           style="fill:#f1ed3e;fill-opacity:1;fill-rule:nonzero;stroke:none"
           d="m 538.30313,67.255624 c -0.54511,-0.04056 -0.85,-0.404688 -0.85,-0.404688 0,0 0.18998,0.111704 0.74218,-0.156248 0,0 0.0268,-0.0027 0.0438,-0.0047 0.0435,-0.01694 0.0855,-0.03772 0.13907,-0.03594 0.007,2.88e-4 0.0105,0.0056 0.0172,0.0062 0.007,-1.68e-4 0.0114,-0.0065 0.0187,-0.0062 0.0105,4.4e-4 0.0164,0.0081 0.0266,0.0094 0.005,-2.4e-5 0.008,-0.0033 0.0125,-0.0031 0.0351,0.0012 0.0584,0.02142 0.0891,0.03125 0.0111,0.0017 0.0201,-0.006 0.0313,-0.0031 0.0181,0.0048 0.0258,0.02079 0.0422,0.02812 0.0168,0.01027 0.0366,0.01537 0.05,0.02813 0.0464,0.02235 0.0807,0.05844 0.10469,0.10156 3.1e-4,2.72e-4 0.009,0.0047 0.009,0.0047 8.1e-4,0.0053 -6.3e-4,0.0089 0,0.01406 0.005,0.01179 0.0142,0.02154 0.0172,0.03438 0.0301,0.12972 -0.0635,0.262984 -0.21093,0.30312 -0.13361,0.05585 -0.28281,0.05313 -0.28281,0.05313 z"
           id="path5920"
           inkscape:connector-curvature="0" /><path
           style="fill:#f1ed3e;fill-opacity:1;fill-rule:nonzero;stroke:none"
           d="m 539.11406,66.900936 c -0.2696,-2.900088 -1.64219,-4.106248 -1.64219,-4.106248 0.0796,0 0.91407,0.37344 0.91407,0.37344 0.0817,-0.213576 -0.16094,-1.126568 -0.16094,-1.126568 0.1079,0 0.59218,0.564064 0.59218,0.564064 l 0.35,-1.075 0.21564,1.10156 0.64531,-0.456248 c -0.16,0.214648 -0.15938,1.153128 -0.15938,1.153128 0.2155,-0.213392 0.8875,-0.428128 0.8875,-0.428128 -0.0724,0.02847 -0.14221,0.06933 -0.20938,0.120312 -1.00753,0.764744 -1.43281,3.879688 -1.43281,3.879688 z"
           id="path5914"
           inkscape:connector-curvature="0" /></g><g
         id="g5956"><path
           style="fill:#f1ed3e;fill-opacity:1;fill-rule:nonzero;stroke:none"
           d="m 531.39062,62.583752 c 0,0 0.10853,-0.188568 -0.15937,-0.740624 0,0 -0.001,-0.02739 -0.003,-0.04531 -0.0164,-0.04291 -0.0377,-0.08366 -0.0359,-0.135944 2.7e-4,-0.0068 0.006,-0.01049 0.006,-0.01718 -1.8e-4,-0.0072 -0.006,-0.01145 -0.006,-0.01875 4.3e-4,-0.01105 0.008,-0.01745 0.009,-0.02812 -1e-5,-0.0047 -0.003,-0.0077 -0.003,-0.0125 9e-4,-0.02829 0.0183,-0.04622 0.025,-0.07187 0.002,-0.01571 -9.6e-4,-0.03101 0.003,-0.04688 0.0196,-0.0761 0.0638,-0.137864 0.12031,-0.17656 0.0113,-0.0094 0.0261,-0.01324 0.0391,-0.02031 2.7e-4,-3.12e-4 0.005,-0.0094 0.005,-0.0094 0.005,-7.44e-4 0.008,6e-4 0.0125,0 0.0122,-0.0053 0.0226,-0.0141 0.0359,-0.01718 0.11096,-0.02601 0.21061,0.05023 0.26719,0.160936 0.0869,0.14228 0.0875,0.332808 0.0875,0.332808 -0.0402,0.542912 -0.40313,0.84688 -0.40313,0.84688 z"
           id="path5912"
           inkscape:connector-curvature="0" /><path
           style="fill:#f1ed3e;fill-opacity:1;fill-rule:nonzero;stroke:none"
           d="m 532.32344,61.165 c 0,0 -0.15722,0.0024 -0.29375,-0.05938 -0.14073,-0.04296 -0.23103,-0.170608 -0.20156,-0.296872 0.003,-0.01248 0.0122,-0.02135 0.0172,-0.03282 6.5e-4,-0.0052 -8.2e-4,-0.0087 0,-0.01406 0,0 0.009,-0.0059 0.009,-0.0062 0.006,-0.01142 0.012,-0.02582 0.0203,-0.03594 0.0386,-0.05613 0.10016,-0.0999 0.17656,-0.118752 0.0152,-0.004 0.0303,-0.0013 0.0453,-0.0031 0.0268,-0.0072 0.0452,-0.02582 0.075,-0.02657 0.005,-1.6e-4 0.008,0.0031 0.0125,0.0031 0.0106,-0.0013 0.0171,-0.009 0.0281,-0.0094 0.008,-2.56e-4 0.0127,0.0045 0.0203,0.0047 0.006,-4.64e-4 0.01,-0.0045 0.0156,-0.0047 0.0524,-0.0017 0.093,0.01954 0.13594,0.03594 0.018,0.002 0.0453,0.0031 0.0453,0.0031 0.55349,0.266696 0.74218,0.157808 0.74218,0.157808 0,0 -0.30303,0.361304 -0.84843,0.403128 z"
           id="path5908"
           inkscape:connector-curvature="0" /><path
           style="fill:#f1ed3e;fill-opacity:1;fill-rule:nonzero;stroke:none"
           d="m 530.66718,61.160312 c -0.54549,-0.04038 -0.84843,-0.40156 -0.84843,-0.40156 0,0 0.18869,0.10624 0.74219,-0.159376 0,0 0.0273,-0.0012 0.0453,-0.0031 0.043,-0.01626 0.0832,-0.03768 0.13593,-0.03594 0.006,2e-4 0.01,0.0042 0.0156,0.0047 0.008,-2.08e-4 0.0126,-0.0049 0.0203,-0.0047 0.01,3.28e-4 0.0153,0.0083 0.025,0.0094 0.006,-8e-5 0.01,-0.0049 0.0156,-0.0047 0.0364,0.0012 0.0605,0.02219 0.0922,0.03282 0.01,0.0016 0.018,-0.0057 0.0281,-0.0031 0.0764,0.01957 0.13967,0.06543 0.17812,0.121872 0.008,0.01031 0.0108,0.02432 0.0172,0.03594 4.4e-4,3.92e-4 0.0109,0.0063 0.0109,0.0063 8.3e-4,0.0054 -6.5e-4,0.0088 0,0.01406 0.005,0.01123 0.0128,0.02065 0.0156,0.03281 0.0244,0.10048 -0.0421,0.188648 -0.13438,0.24844 -0.14305,0.106112 -0.35938,0.106248 -0.35938,0.106248 z"
           id="path5904"
           inkscape:connector-curvature="0" /><path
           style="fill:#f1ed3e;fill-opacity:1;fill-rule:nonzero;stroke:none"
           d="m 531.47813,60.805624 c -0.26951,-2.898832 -1.64375,-4.107808 -1.64375,-4.107808 0.0819,0 0.91718,0.37656 0.91718,0.37656 0.0812,-0.214824 -0.1625,-1.128128 -0.1625,-1.128128 0.1078,0 0.59219,0.562504 0.59219,0.562504 l 0.35157,-1.07188 0.21562,1.1 0.64531,-0.456248 c -0.162,0.214648 -0.1625,1.154688 -0.1625,1.154688 0.2155,-0.216272 0.89062,-0.431248 0.89062,-0.431248 -0.0724,0.02865 -0.14218,0.06918 -0.20937,0.120312 -1.0078,0.766944 -1.43437,3.881248 -1.43437,3.881248 z"
           id="path5900"
           inkscape:connector-curvature="0" /></g><g
         id="g5962"><path
           style="fill:#f1ed3e;fill-opacity:1;fill-rule:nonzero;stroke:none"
           d="m 536.60156,62.583752 c 0,0 0.10953,-0.188568 -0.15938,-0.740624 0,0 -10e-4,-0.02739 -0.003,-0.04531 -0.0165,-0.04291 -0.0377,-0.08366 -0.0359,-0.135944 2.3e-4,-0.0061 0.004,-0.0096 0.005,-0.01562 -2.2e-4,-0.0076 -0.005,-0.0126 -0.005,-0.02031 4.1e-4,-0.01108 0.008,-0.01742 0.009,-0.02812 -2e-5,-0.0047 -0.003,-0.0077 -0.003,-0.0125 10e-4,-0.03638 0.0221,-0.06043 0.0328,-0.09218 0.002,-0.0095 -0.006,-0.01702 -0.003,-0.02657 0.0179,-0.06962 0.0581,-0.12512 0.10781,-0.164064 0.0149,-0.01432 0.0319,-0.02455 0.05,-0.03437 2.1e-4,-2.4e-4 0.005,-0.0078 0.005,-0.0078 0.004,-6.4e-4 0.007,5.36e-4 0.0109,0 0.0122,-0.0054 0.0226,-0.01406 0.0359,-0.01718 0.12878,-0.03005 0.25926,0.06097 0.30156,0.204688 0.0587,0.13484 0.0547,0.289056 0.0547,0.289056 -0.039,0.542912 -0.40313,0.84688 -0.40313,0.84688 z"
           id="path5910"
           inkscape:connector-curvature="0" /><path
           style="fill:#f1ed3e;fill-opacity:1;fill-rule:nonzero;stroke:none"
           d="m 537.53594,61.165 c 0,0 -0.1598,0.003 -0.29688,-0.05938 -0.13915,-0.0435 -0.22873,-0.17112 -0.19844,-0.296872 0.003,-0.01186 0.011,-0.02031 0.0156,-0.03125 6.9e-4,-0.0058 -9.1e-4,-0.0097 0,-0.01563 0,0 0.0105,-0.0059 0.0109,-0.0062 0.008,-0.01415 0.0142,-0.02851 0.025,-0.04062 0.0391,-0.05362 0.0992,-0.09582 0.17344,-0.114064 0.0144,-0.0038 0.0279,-0.0013 0.0422,-0.0031 0.0272,-0.0074 0.0463,-0.02582 0.0766,-0.02657 0.005,-1.6e-4 0.008,0.0031 0.0125,0.0031 0.0107,-0.0013 0.0171,-0.009 0.0281,-0.0094 0.007,-2.4e-4 0.0117,0.0045 0.0188,0.0047 0.006,-4.64e-4 0.01,-0.0045 0.0156,-0.0047 0.0529,-0.0017 0.0931,0.01954 0.13593,0.03594 0.0179,0.002 0.0453,0.0031 0.0453,0.0031 0.5522,0.266696 0.7422,0.157808 0.7422,0.157808 0,0 -0.30228,0.361304 -0.84688,0.403128 z"
           id="path5906"
           inkscape:connector-curvature="0" /><path
           style="fill:#f1ed3e;fill-opacity:1;fill-rule:nonzero;stroke:none"
           d="m 535.87813,61.160312 c -0.54651,-0.04038 -0.84844,-0.40156 -0.84844,-0.40156 0,0 0.18849,0.10624 0.74218,-0.159376 0,0 0.0278,-0.0011 0.0469,-0.0031 0.0428,-0.01602 0.0835,-0.03766 0.13594,-0.03594 0.006,2e-4 0.01,0.0042 0.0156,0.0047 0.007,-1.68e-4 0.0115,-0.0049 0.0187,-0.0047 0.01,3.28e-4 0.0154,0.0083 0.025,0.0094 0.006,-8e-5 0.01,-0.0049 0.0156,-0.0047 0.0365,0.0012 0.0606,0.02232 0.0922,0.03282 0.009,0.0016 0.0171,-0.0056 0.0266,-0.0031 0.0766,0.01957 0.1393,0.06387 0.17812,0.120312 0.01,0.01194 0.0145,0.02688 0.0219,0.04062 1.4e-4,1.2e-4 0.006,0.0031 0.006,0.0031 5.6e-4,0.0036 -4.8e-4,0.0059 0,0.0094 0.006,0.01278 0.0154,0.02347 0.0187,0.0375 0.0228,0.100696 -0.0435,0.188704 -0.13594,0.24844 -0.14268,0.106112 -0.35937,0.106248 -0.35937,0.106248 z"
           id="path5902"
           inkscape:connector-curvature="0" /><path
           style="fill:#f1ed3e;fill-opacity:1;fill-rule:nonzero;stroke:none"
           d="m 536.69062,60.805624 c -0.2684,-2.898832 -1.64375,-4.107808 -1.64375,-4.107808 0.0799,0 0.91563,0.37656 0.91563,0.37656 0.082,-0.214824 -0.16094,-1.128128 -0.16094,-1.128128 0.1077,0 0.59219,0.562504 0.59219,0.562504 l 0.35,-1.07188 0.21407,1.1 0.64843,-0.456248 c -0.162,0.214648 -0.16094,1.154688 -0.16094,1.154688 0.21551,-0.216272 0.88751,-0.431248 0.88751,-0.431248 -0.0724,0.02865 -0.14217,0.06918 -0.20938,0.120312 -1.00813,0.766944 -1.43282,3.881248 -1.43282,3.881248 z"
           id="path5898"
           inkscape:connector-curvature="0" /></g><g
         id="g5980"><path
           style="fill:#f1ed3e;fill-opacity:1;fill-rule:nonzero;stroke:none"
           d="m 529.06094,56.461872 c 0,0 0.10862,-0.188744 -0.15938,-0.740624 0,0 -10e-4,-0.02833 -0.003,-0.04843 -0.0156,-0.04223 -0.0362,-0.0813 -0.0344,-0.132816 2e-4,-0.0061 0.004,-0.0096 0.005,-0.01562 -2e-4,-0.0076 -0.005,-0.01254 -0.005,-0.02031 3.2e-4,-0.01001 0.008,-0.0153 0.009,-0.025 -6e-5,-0.006 -0.005,-0.0096 -0.005,-0.01562 8.9e-4,-0.02793 0.0185,-0.04504 0.025,-0.07031 0.002,-0.01629 -10e-4,-0.03193 0.003,-0.04844 0.005,-0.01824 0.0222,-0.02568 0.0297,-0.04219 0.01,-0.01629 0.0142,-0.03532 0.0266,-0.04843 0.0141,-0.02922 0.0334,-0.05362 0.0562,-0.075 0.004,-0.0033 0.006,-0.0095 0.0109,-0.0125 0.01,-0.008 0.0233,-0.01088 0.0344,-0.01718 3.9e-4,-4.48e-4 0.006,-0.01094 0.006,-0.01094 0.005,-8.32e-4 0.009,6.48e-4 0.0141,0 0.0118,-0.0052 0.0215,-0.01406 0.0344,-0.01719 0.12858,-0.03006 0.25818,0.06098 0.3,0.204688 0.0588,0.134848 0.0547,0.289064 0.0547,0.289064 -0.0406,0.542912 -0.40312,0.846872 -0.40312,0.846872 z"
           id="path5896"
           inkscape:connector-curvature="0" /><path
           style="fill:#f1ed3e;fill-opacity:1;fill-rule:nonzero;stroke:none"
           d="m 529.99375,55.043128 c 0,0 -0.15258,0.0036 -0.2875,-0.05469 -0.14528,-0.0406 -0.23649,-0.172048 -0.20625,-0.301568 0.003,-0.01184 0.011,-0.02031 0.0156,-0.03125 7e-4,-0.0058 -9.2e-4,-0.0096 0,-0.01562 0,0 0.0105,-0.0059 0.0109,-0.0062 0.006,-0.01127 0.0105,-0.02594 0.0187,-0.03594 6.3e-4,-9.12e-4 0.002,-6.64e-4 0.003,-0.0016 0.0215,-0.02499 0.0488,-0.04408 0.0797,-0.05938 0.0151,-0.01501 0.0367,-0.02118 0.0562,-0.03281 0.0152,-0.0067 0.0224,-0.02213 0.0391,-0.02656 0.0107,-0.0026 0.019,0.0047 0.0297,0.0031 0.0308,-0.0098 0.0539,-0.03039 0.089,-0.03125 0.005,-2e-4 0.008,0.0031 0.0125,0.0031 0.0106,-0.0014 0.0171,-0.0088 0.0281,-0.0094 0.008,-2.72e-4 0.0127,0.0045 0.0203,0.0047 0.006,-5.52e-4 0.01,-0.0044 0.0156,-0.0047 0.0528,-0.0018 0.0942,0.01759 0.1375,0.03438 0.017,0.0018 0.0438,0.0031 0.0438,0.0031 0.5534,0.26688 0.74218,0.159376 0.74218,0.159376 0,0 -0.30293,0.361664 -0.84843,0.403128 z"
           id="path5890"
           inkscape:connector-curvature="0" /><path
           style="fill:#f1ed3e;fill-opacity:1;fill-rule:nonzero;stroke:none"
           d="m 528.3375,55.03844 c -0.5459,-0.04056 -0.84844,-0.403128 -0.84844,-0.403128 0,0 0.18832,0.108888 0.74063,-0.157808 0,0 0.0267,-0.0012 0.0422,-0.0031 0.0439,-0.01737 0.0861,-0.03818 0.14063,-0.03594 0.007,2.16e-4 0.0107,0.0042 0.0172,0.0047 0.007,-1.2e-4 0.0115,-0.005 0.0187,-0.0047 0.01,3.28e-4 0.0153,0.0083 0.025,0.0094 0.006,-8e-5 0.01,-0.0049 0.0156,-0.0047 0.029,0.0014 0.0473,0.01783 0.0734,0.025 0.0156,0.0016 0.0311,6.8e-4 0.0469,0.0047 0.0761,0.01956 0.13784,0.064 0.17656,0.120312 0,0 0.002,0 0.002,0 0.008,0.01021 0.0108,0.02438 0.0172,0.03594 4.5e-4,3.92e-4 0.0109,0.0062 0.0109,0.0062 8.4e-4,0.0054 -6.4e-4,0.0088 0,0.01406 0.005,0.0112 0.0128,0.02065 0.0156,0.03281 0.031,0.127376 -0.059,0.253 -0.2,0.29688 -0.13643,0.0618 -0.29375,0.05938 -0.29375,0.05938 z"
           id="path5884"
           inkscape:connector-curvature="0" /><path
           style="fill:#f1ed3e;fill-opacity:1;fill-rule:nonzero;stroke:none"
           d="m 529.14844,54.683752 c -0.2697,-2.900272 -1.64375,-4.107816 -1.64375,-4.107816 0.0819,0 0.91718,0.37656 0.91718,0.37656 0.0803,-0.214824 -0.16249,-1.12812 -0.16249,-1.12812 0.1078,0 0.59375,0.564064 0.59375,0.564064 l 0.35,-1.075 0.21562,1.10156 0.64531,-0.457816 c -0.1622,0.214832 -0.16093,1.154688 -0.16093,1.154688 0.21529,-0.213384 0.88905,-0.42812 0.88905,-0.42812 -0.0724,0.02846 -0.14217,0.06775 -0.20936,0.118744 -1.00799,0.764904 -1.43438,3.881256 -1.43438,3.881256 z"
           id="path5878"
           inkscape:connector-curvature="0" /></g><g
         id="g5974"><path
           style="fill:#f1ed3e;fill-opacity:1;fill-rule:nonzero;stroke:none"
           d="m 533.82813,56.461872 c 0,0 0.10909,-0.188744 -0.15782,-0.740624 0,0 -0.003,-0.02634 -0.005,-0.04218 -0.017,-0.04352 -0.0378,-0.08522 -0.0359,-0.139064 2e-4,-0.0063 0.006,-0.0095 0.006,-0.01562 -2.1e-4,-0.0078 -0.007,-0.01238 -0.006,-0.02031 3.2e-4,-0.01 0.008,-0.01532 0.009,-0.025 -8e-5,-0.006 -0.005,-0.0096 -0.005,-0.01562 10e-4,-0.02978 0.0192,-0.04828 0.0266,-0.075 0.002,-0.01475 -6.8e-4,-0.02883 0.003,-0.04375 0.004,-0.01625 0.0202,-0.02262 0.0266,-0.0375 0.0114,-0.01928 0.0166,-0.04129 0.0312,-0.05625 0.0156,-0.03167 0.0349,-0.05922 0.061,-0.08125 0,0 0.002,-0.0016 0.002,-0.0016 0,0 0.002,-0.0016 0.002,-0.0016 0.0104,-0.0085 0.0241,-0.0122 0.0359,-0.01874 3.1e-4,-3.6e-4 0.006,-0.0094 0.006,-0.0094 0.005,-7.44e-4 0.008,5.92e-4 0.0125,0 0.0119,-0.0052 0.0214,-0.01406 0.0344,-0.01719 0.12842,-0.03006 0.2601,0.06092 0.30156,0.204688 0.0591,0.134816 0.0563,0.289064 0.0563,0.289064 -0.0408,0.542912 -0.40469,0.846872 -0.40469,0.846872 z"
           id="path5894"
           inkscape:connector-curvature="0" /><path
           style="fill:#f1ed3e;fill-opacity:1;fill-rule:nonzero;stroke:none"
           d="m 534.76094,55.043128 c 0,0 -0.15259,0.0036 -0.2875,-0.05469 -0.14436,-0.0406 -0.23806,-0.172048 -0.20782,-0.301568 0.003,-0.01246 0.0122,-0.02135 0.0172,-0.03281 6.4e-4,-0.0052 -8.4e-4,-0.0087 0,-0.01406 0,0 0.0105,-0.0059 0.0109,-0.0062 0.006,-0.01118 0.0106,-0.02602 0.0187,-0.03594 0,0 0.002,-0.0016 0.002,-0.0016 0.022,-0.02578 0.0495,-0.0454 0.0812,-0.06094 0.0149,-0.01466 0.0371,-0.01984 0.0562,-0.03125 0.0154,-0.0067 0.0222,-0.02213 0.0391,-0.02656 0.0106,-0.0026 0.0191,0.0047 0.0297,0.0031 0.0309,-0.0098 0.0537,-0.03039 0.0891,-0.03125 0.005,-2e-4 0.008,0.0031 0.0125,0.0031 0.0107,-0.0014 0.0171,-0.0088 0.0281,-0.0094 0.008,-2.64e-4 0.0128,0.0045 0.0203,0.0047 0.006,-5.52e-4 0.01,-0.0044 0.0156,-0.0047 0.0532,-0.0018 0.0942,0.01759 0.1375,0.03438 0.017,0.0018 0.0437,0.0031 0.0437,0.0031 0.5536,0.26688 0.7422,0.159376 0.7422,0.159376 0,0 -0.30314,0.361664 -0.84844,0.403128 z"
           id="path5888"
           inkscape:connector-curvature="0" /><path
           style="fill:#f1ed3e;fill-opacity:1;fill-rule:nonzero;stroke:none"
           d="m 533.10313,55.03844 c -0.54511,-0.04056 -0.84844,-0.403128 -0.84844,-0.403128 0,0 0.19058,0.108888 0.74218,-0.157808 0,0 0.0268,-0.0012 0.0422,-0.0031 0.0438,-0.01737 0.0862,-0.03818 0.14063,-0.03594 0.006,2e-4 0.01,0.0042 0.0156,0.0047 0.008,-1.6e-4 0.0126,-0.005 0.0203,-0.0047 0.01,3.28e-4 0.0153,0.0083 0.025,0.0094 0.005,-5.6e-5 0.009,-0.0049 0.0141,-0.0047 0.0288,0.0014 0.0474,0.01792 0.0734,0.025 0.0158,0.0016 0.0309,6.24e-4 0.0469,0.0047 0.0167,0.0043 0.0238,0.01998 0.0391,0.02656 0.0184,0.01094 0.0403,0.01589 0.0547,0.02969 0.0327,0.01601 0.0636,0.03715 0.0859,0.06406 0.008,0.01021 0.0107,0.02438 0.0172,0.03594 4.5e-4,3.92e-4 0.0109,0.0062 0.0109,0.0062 8.2e-4,0.0054 -6.5e-4,0.0088 0,0.01406 0.005,0.0112 0.0127,0.02065 0.0156,0.03281 0.0241,0.10088 -0.0396,0.188408 -0.13126,0.24844 0,0 -0.002,0.0016 -0.002,0.0016 0,0 -0.002,0 -0.002,0 -0.1433,0.106496 -0.36093,0.106256 -0.36093,0.106256 z"
           id="path5882"
           inkscape:connector-curvature="0" /><path
           style="fill:#f1ed3e;fill-opacity:1;fill-rule:nonzero;stroke:none"
           d="m 533.91562,54.683752 c -0.26889,-2.900272 -1.64218,-4.107816 -1.64218,-4.107816 0.0812,0 0.91562,0.37656 0.91562,0.37656 0.0808,-0.214824 -0.16093,-1.12812 -0.16093,-1.12812 0.10669,0 0.59218,0.564064 0.59218,0.564064 l 0.35,-1.075 0.21563,1.10156 0.64531,-0.457816 c -0.1618,0.214832 -0.16094,1.154688 -0.16094,1.154688 0.21551,-0.213384 0.88751,-0.42812 0.88751,-0.42812 -0.0724,0.02846 -0.1422,0.06775 -0.20938,0.118744 -1.00785,0.764904 -1.43282,3.881256 -1.43282,3.881256 z"
           id="path5876"
           inkscape:connector-curvature="0" /></g><g
         id="g5968"><path
           style="fill:#f1ed3e;fill-opacity:1;fill-rule:nonzero;stroke:none"
           d="m 539.02656,56.461872 c 0,0 0.10833,-0.188744 -0.15938,-0.740624 0,0 -10e-4,-0.02528 -0.003,-0.03906 -0.0179,-0.04418 -0.0378,-0.08711 -0.0359,-0.142184 2.3e-4,-0.0061 0.004,-0.0096 0.005,-0.01562 -2.2e-4,-0.0076 -0.005,-0.01254 -0.005,-0.02031 3.7e-4,-0.01 0.008,-0.01532 0.009,-0.025 -8e-5,-0.006 -0.005,-0.0096 -0.005,-0.01562 10e-4,-0.03607 0.0224,-0.05923 0.0328,-0.09062 0.002,-0.01011 -0.006,-0.01796 -0.003,-0.02813 0.004,-0.01625 0.0202,-0.02262 0.0266,-0.0375 0.011,-0.01859 0.0157,-0.0401 0.0297,-0.05469 0.0156,-0.03244 0.036,-0.06035 0.0625,-0.08281 0,0 0.002,-0.0016 0.002,-0.0016 0,0 0.002,-0.0016 0.002,-0.0016 0.0104,-0.0085 0.0242,-0.0122 0.0359,-0.01874 3.1e-4,-3.6e-4 0.006,-0.0094 0.006,-0.0094 0.005,-7.44e-4 0.008,5.92e-4 0.0125,0 0.0118,-0.0052 0.0215,-0.01406 0.0344,-0.01719 0.1289,-0.03006 0.25986,0.06092 0.30156,0.204688 0.0585,0.134816 0.0531,0.289064 0.0531,0.289064 -0.0391,0.542912 -0.40157,0.846872 -0.40157,0.846872 z"
           id="path5892"
           inkscape:connector-curvature="0" /><path
           style="fill:#f1ed3e;fill-opacity:1;fill-rule:nonzero;stroke:none"
           d="m 539.95938,55.043128 c 0,0 -0.15651,0.0035 -0.2922,-0.05626 -0.14176,-0.04218 -0.23378,-0.171936 -0.20312,-0.3 0.003,-0.01246 0.0122,-0.02135 0.0172,-0.03281 6.5e-4,-0.0052 -8.4e-4,-0.0087 0,-0.01406 0,0 0.0105,-0.0059 0.0109,-0.0062 0.006,-0.01118 0.0106,-0.02602 0.0188,-0.03594 0,0 0.002,-0.0016 0.002,-0.0016 0.022,-0.02578 0.0495,-0.0454 0.0812,-0.06094 0.0147,-0.01431 0.0359,-0.02006 0.0547,-0.03125 0.0154,-0.0067 0.0222,-0.0221 0.0391,-0.02656 0.0107,-0.0026 0.0191,0.0047 0.0297,0.0031 0.0313,-0.01 0.0547,-0.03038 0.0906,-0.03125 0.005,-2e-4 0.008,0.0031 0.0125,0.0031 0.0107,-0.0014 0.0171,-0.0088 0.0281,-0.0094 0.007,-2.48e-4 0.0116,0.0045 0.0187,0.0047 0.006,-5.6e-4 0.01,-0.0044 0.0156,-0.0047 0.0534,-0.0018 0.0943,0.01759 0.13749,0.03438 0.0175,0.0018 0.0453,0.0031 0.0453,0.0031 0.553,0.26688 0.7422,0.159376 0.7422,0.159376 0,0 -0.30335,0.361664 -0.84844,0.403128 z"
           id="path5886"
           inkscape:connector-curvature="0" /><path
           style="fill:#f1ed3e;fill-opacity:1;fill-rule:nonzero;stroke:none"
           d="m 538.30313,55.03844 c -0.54511,-0.04056 -0.85,-0.403128 -0.85,-0.403128 0,0 0.18998,0.108888 0.74218,-0.157808 0,0 0.0263,-0.0012 0.0422,-0.0031 0.0439,-0.01737 0.0864,-0.03818 0.14063,-0.03594 0.006,2e-4 0.01,0.0042 0.0156,0.0047 0.008,-1.6e-4 0.0126,-0.005 0.0203,-0.0047 0.01,3.28e-4 0.0153,0.0083 0.025,0.0094 0.005,-5.6e-5 0.009,-0.0049 0.0141,-0.0047 0.0291,0.0014 0.0473,0.0194 0.0734,0.02656 0.0156,0.0016 0.0311,-8.72e-4 0.0469,0.0031 0.0711,0.01812 0.1264,0.05887 0.16562,0.109368 0.0137,0.01434 0.0233,0.03106 0.0328,0.04844 2.4e-4,2.08e-4 0.008,0.0047 0.008,0.0047 7.3e-4,0.0048 -5.9e-4,0.0078 0,0.0125 0.005,0.01178 0.0142,0.02151 0.0172,0.03437 0.0293,0.127376 -0.0595,0.253 -0.2,0.29688 -0.13639,0.0618 -0.29374,0.05938 -0.29374,0.05938 z"
           id="path5880"
           inkscape:connector-curvature="0" /><path
           style="fill:#f1ed3e;fill-opacity:1;fill-rule:nonzero;stroke:none"
           d="m 539.11406,54.683752 c -0.2696,-2.900272 -1.64219,-4.107816 -1.64219,-4.107816 0.0796,0 0.91407,0.37656 0.91407,0.37656 0.0817,-0.214824 -0.16094,-1.12812 -0.16094,-1.12812 0.1079,0 0.59218,0.564064 0.59218,0.564064 l 0.35,-1.075 0.21564,1.10156 0.64531,-0.457816 c -0.16,0.214832 -0.15938,1.154688 -0.15938,1.154688 0.2155,-0.213384 0.8875,-0.42812 0.8875,-0.42812 -0.0724,0.02846 -0.14221,0.06775 -0.20938,0.118744 -1.00753,0.764904 -1.43281,3.881256 -1.43281,3.881256 z"
           id="path5874"
           inkscape:connector-curvature="0" /></g><g
         id="g5986"><path
           style="fill:#f1ed3e;fill-opacity:1;fill-rule:nonzero;stroke:none"
           d="m 531.39062,50.097816 c 0,0 0.10853,-0.189832 -0.15937,-0.740632 0,0 -0.001,-0.02739 -0.003,-0.04531 -0.0164,-0.04294 -0.0377,-0.08323 -0.0359,-0.135936 2.5e-4,-0.0063 0.006,-0.0095 0.006,-0.01562 -2.2e-4,-0.0077 -0.007,-0.01245 -0.006,-0.02031 4e-4,-0.0105 0.008,-0.0164 0.009,-0.02656 -3e-5,-0.0053 -0.003,-0.0087 -0.003,-0.01406 9e-4,-0.02852 0.0183,-0.0462 0.025,-0.07187 0.002,-0.01541 -8.8e-4,-0.02976 0.003,-0.04532 0.0196,-0.07609 0.0638,-0.139224 0.12031,-0.17812 0,0 0.002,-0.0016 0.002,-0.0016 0.0103,-0.0084 0.0243,-0.01226 0.0359,-0.01874 3.1e-4,-3.6e-4 0.006,-0.0094 0.006,-0.0094 0.005,-8.24e-4 0.009,6.32e-4 0.0141,0 0.0117,-0.0051 0.0216,-0.01409 0.0344,-0.01719 0.11743,-0.02753 0.22707,0.05591 0.27969,0.178128 0.0756,0.140384 0.075,0.315624 0.075,0.315624 -0.0402,0.543984 -0.40313,0.84688 -0.40313,0.84688 z"
           id="path5872"
           inkscape:connector-curvature="0" /><path
           style="fill:#f1ed3e;fill-opacity:1;fill-rule:nonzero;stroke:none"
           d="m 532.32344,48.679064 c 0,0 -0.15383,0.0038 -0.28906,-0.05469 -0.14392,-0.04107 -0.23611,-0.171928 -0.20625,-0.29844 0.003,-0.01283 0.0122,-0.02262 0.0172,-0.03438 6.5e-4,-0.0052 -8.3e-4,-0.0087 0,-0.01406 0,0 0.009,-0.0059 0.009,-0.0063 0.006,-0.01169 0.0119,-0.02561 0.0203,-0.03594 0.002,-0.0029 0.005,-0.0051 0.008,-0.0078 0.0389,-0.05202 0.0964,-0.09406 0.16874,-0.112504 0.01,-0.0024 0.0171,0.0047 0.0266,0.0031 0.0323,-0.0112 0.0565,-0.03251 0.0937,-0.03438 0.006,-2e-4 0.01,0.0046 0.0156,0.0047 0.01,-0.0011 0.0151,-0.009 0.025,-0.0094 0.007,-1.76e-4 0.0116,0.006 0.0188,0.0062 0.007,-6.08e-4 0.0104,-0.006 0.0172,-0.0062 0.0524,-0.0013 0.093,0.01963 0.13594,0.03594 0.018,0.002 0.0453,0.0031 0.0453,0.0031 0.55349,0.266864 0.74218,0.159376 0.74218,0.159376 0,0 -0.30303,0.361176 -0.84843,0.40156 z"
           id="path5868"
           inkscape:connector-curvature="0" /><path
           style="fill:#f1ed3e;fill-opacity:1;fill-rule:nonzero;stroke:none"
           d="m 530.66718,48.674376 c -0.54549,-0.04056 -0.84843,-0.403128 -0.84843,-0.403128 0,0 0.18869,0.109192 0.74219,-0.156248 0,0 0.0273,-0.0026 0.0453,-0.0047 0.043,-0.01618 0.0832,-0.03654 0.13593,-0.03438 0.006,2e-4 0.01,0.0042 0.0156,0.0047 0.008,-1.52e-4 0.0125,-0.005 0.0203,-0.0047 0.009,3.04e-4 0.0144,0.0069 0.0234,0.0078 0.007,-1.68e-4 0.0106,-0.0048 0.0172,-0.0047 0.0277,0.0011 0.0452,0.01841 0.0703,0.025 0.0166,0.0016 0.0332,4.16e-4 0.05,0.0047 0.0764,0.01956 0.13967,0.06541 0.17812,0.121872 0.008,0.0099 0.0109,0.02324 0.0172,0.03438 4.4e-4,3.84e-4 0.0109,0.0062 0.0109,0.0062 9.3e-4,0.006 -6.9e-4,0.0098 0,0.01562 0.005,0.01122 0.0128,0.02066 0.0156,0.03282 0.0307,0.127376 -0.06,0.252368 -0.2,0.295312 -0.13648,0.06166 -0.29376,0.05938 -0.29376,0.05938 z"
           id="path5864"
           inkscape:connector-curvature="0" /><path
           style="fill:#f1ed3e;fill-opacity:1;fill-rule:nonzero;stroke:none"
           d="m 531.47813,48.321248 c -0.26951,-2.899008 -1.64375,-4.109376 -1.64375,-4.109376 0.0819,0 0.91718,0.376568 0.91718,0.376568 0.0812,-0.214832 -0.1625,-1.126568 -0.1625,-1.126568 0.1078,0 0.59219,0.562504 0.59219,0.562504 l 0.35157,-1.07344 0.21562,1.1 0.64531,-0.456248 c -0.162,0.214832 -0.1625,1.154688 -0.1625,1.154688 0.2155,-0.213568 0.89062,-0.429688 0.89062,-0.429688 -0.0724,0.02848 -0.14218,0.06932 -0.20937,0.120312 -1.0078,0.764888 -1.43437,3.881248 -1.43437,3.881248 z"
           id="path5860"
           inkscape:connector-curvature="0" /></g><g
         id="g5992"><path
           style="fill:#f1ed3e;fill-opacity:1;fill-rule:nonzero;stroke:none"
           d="m 536.60156,50.097816 c 0,0 0.10953,-0.189832 -0.15938,-0.740632 0,0 -10e-4,-0.02739 -0.003,-0.04531 -0.0165,-0.04294 -0.0377,-0.08323 -0.0359,-0.135936 2.3e-4,-0.0061 0.004,-0.0096 0.005,-0.01562 -2.1e-4,-0.0076 -0.005,-0.01259 -0.005,-0.02031 4.1e-4,-0.01108 0.008,-0.01742 0.009,-0.02813 -2e-5,-0.0047 -0.003,-0.0077 -0.003,-0.0125 10e-4,-0.03666 0.0221,-0.06047 0.0328,-0.09219 0.002,-0.009 -0.005,-0.01601 -0.003,-0.025 0.004,-0.01396 0.0167,-0.01985 0.0219,-0.03281 0.0118,-0.02083 0.0173,-0.04494 0.0328,-0.06094 0.0162,-0.03341 0.038,-0.06319 0.0656,-0.08594 0.0104,-0.0085 0.0242,-0.0122 0.0359,-0.01874 3.1e-4,-3.6e-4 0.006,-0.0094 0.006,-0.0094 0.005,-7.2e-4 0.008,5.76e-4 0.0125,0 0.0118,-0.0052 0.0216,-0.01405 0.0344,-0.01719 0.10728,-0.02504 0.20282,0.04723 0.26094,0.15 0.0953,0.142816 0.0953,0.343752 0.0953,0.343752 -0.039,0.543984 -0.40313,0.84688 -0.40313,0.84688 z"
           id="path5870"
           inkscape:connector-curvature="0" /><path
           style="fill:#f1ed3e;fill-opacity:1;fill-rule:nonzero;stroke:none"
           d="m 537.53594,48.679064 c 0,0 -0.1551,0.0038 -0.29063,-0.05469 -0.14313,-0.04114 -0.23549,-0.171992 -0.20469,-0.29844 0.003,-0.01222 0.0109,-0.02157 0.0156,-0.03281 6.9e-4,-0.0058 -9.2e-4,-0.0096 0,-0.01562 0,0 0.0105,-0.0059 0.0109,-0.0063 0.01,-0.01804 0.02,-0.0353 0.0344,-0.05 0.0392,-0.04874 0.0946,-0.08862 0.16406,-0.106248 0.009,-0.0023 0.0161,0.0046 0.025,0.0031 0.0322,-0.01106 0.0566,-0.03252 0.0938,-0.03438 0.006,-2e-4 0.01,0.0046 0.0156,0.0047 0.01,-0.0011 0.0151,-0.009 0.025,-0.0094 0.007,-1.76e-4 0.0117,0.0045 0.0188,0.0047 0.006,-5.12e-4 0.01,-0.0044 0.0156,-0.0047 0.0529,-0.0013 0.0931,0.01963 0.13593,0.03594 0.0179,0.002 0.0453,0.0031 0.0453,0.0031 0.5522,0.266864 0.7422,0.159376 0.7422,0.159376 0,0 -0.30228,0.361176 -0.84688,0.40156 z"
           id="path5866"
           inkscape:connector-curvature="0" /><path
           style="fill:#f1ed3e;fill-opacity:1;fill-rule:nonzero;stroke:none"
           d="m 535.87813,48.674376 c -0.54651,-0.04056 -0.84844,-0.403128 -0.84844,-0.403128 0,0 0.18849,0.109192 0.74218,-0.156248 0,0 0.0273,-0.0026 0.0453,-0.0047 0.043,-0.01629 0.0846,-0.03654 0.13751,-0.03438 0.006,2.08e-4 0.01,0.0042 0.0156,0.0047 0.007,-1.12e-4 0.0115,-0.005 0.0187,-0.0047 0.009,3.04e-4 0.0145,0.0069 0.0234,0.0078 0.007,-1.76e-4 0.0105,-0.0048 0.0172,-0.0047 0.0283,0.0012 0.0464,0.01826 0.0719,0.025 0.0159,0.0016 0.0308,5.68e-4 0.0469,0.0047 0.0766,0.01956 0.1393,0.06385 0.17812,0.120312 0.009,0.011 0.0133,0.02493 0.0203,0.0375 2.4e-4,2.08e-4 0.008,0.0047 0.008,0.0047 6.5e-4,0.0042 -5.5e-4,0.0068 0,0.01094 0.006,0.01277 0.0154,0.02347 0.0187,0.0375 0.0289,0.128608 -0.0611,0.256768 -0.20313,0.29844 -0.13557,0.06026 -0.29218,0.05625 -0.29218,0.05625 z"
           id="path5862"
           inkscape:connector-curvature="0" /><path
           style="fill:#f1ed3e;fill-opacity:1;fill-rule:nonzero;stroke:none"
           d="m 536.69062,48.321248 c -0.2684,-2.899008 -1.64375,-4.109376 -1.64375,-4.109376 0.0799,0 0.91563,0.376568 0.91563,0.376568 0.082,-0.214832 -0.16094,-1.126568 -0.16094,-1.126568 0.1077,0 0.59219,0.562504 0.59219,0.562504 l 0.35,-1.07344 0.21407,1.1 0.64843,-0.456248 c -0.162,0.214832 -0.16094,1.154688 -0.16094,1.154688 0.21551,-0.213568 0.88751,-0.429688 0.88751,-0.429688 -0.0724,0.02848 -0.14217,0.06932 -0.20938,0.120312 -1.00813,0.764888 -1.43282,3.881248 -1.43282,3.881248 z"
           id="path128"
           inkscape:connector-curvature="0" /></g></g></g></svg>