<?xml version="1.0" encoding="UTF-8" standalone="no"?>
<svg
   xmlns:dc="http://purl.org/dc/elements/1.1/"
   xmlns:cc="http://creativecommons.org/ns#"
   xmlns:rdf="http://www.w3.org/1999/02/22-rdf-syntax-ns#"
   xmlns:svg="http://www.w3.org/2000/svg"
   xmlns="http://www.w3.org/2000/svg"
   xmlns:sodipodi="http://sodipodi.sourceforge.net/DTD/sodipodi-0.dtd"
   xmlns:inkscape="http://www.inkscape.org/namespaces/inkscape"
   inkscape:version="1.0 (4035a4f, 2020-05-01)"
   sodipodi:docname="Logo Sceaux 92.svg"
   viewBox="0 0 1560.7588 700"
   height="700"
   width="1560.7588"
   xml:space="preserve"
   id="svg833"
   version="1.1"><metadata
     id="metadata839"><rdf:RDF><cc:Work
         rdf:about=""><dc:format>image/svg+xml</dc:format><dc:type
           rdf:resource="http://purl.org/dc/dcmitype/StillImage" /><dc:title></dc:title></cc:Work></rdf:RDF></metadata><defs
     id="defs837" /><sodipodi:namedview
     inkscape:current-layer="g841"
     inkscape:window-maximized="0"
     inkscape:window-y="0"
     inkscape:window-x="0"
     inkscape:cy="139.7"
     inkscape:cx="370.98302"
     inkscape:zoom="0.376716"
     showgrid="false"
     id="namedview835"
     inkscape:window-height="900"
     inkscape:window-width="1440"
     inkscape:pageshadow="2"
     inkscape:pageopacity="0"
     guidetolerance="10"
     gridtolerance="10"
     objecttolerance="10"
     borderopacity="1"
     bordercolor="#666666"
     pagecolor="#ffffff" /><g
     transform="matrix(1.3333333,0,0,-1.3333333,-238.6655,767.24492)"
     inkscape:label="Logo Sceaux 92"
     inkscape:groupmode="layer"
     id="g841"><g
       transform="matrix(10.668889,0,0,10.668889,-1730.7224,-5563.8035)"
       id="g3188"><path
         id="path1303"
         style="fill:#000000;fill-opacity:1;fill-rule:nonzero;stroke:none"
         d="m 199.7245,565.335 c 0,0 -0.149,-0.384 -1.058,-0.183 -0.944,0.206 -1.842,0.344 -2.417,0.344 -0.573,0 -2.736,-0.045 -3.771,-2.001 -1.035,-1.955 -0.229,-3.818 0.299,-4.394 0.529,-0.575 1.035,-1.012 1.977,-1.632 0.944,-0.621 2.141,-1.242 2.923,-1.956 0.792,-0.723 1.449,-1.541 0.805,-2.736 -0.646,-1.197 -1.496,-1.473 -2.647,-1.473 -1.149,0 -3.495,0.736 -3.955,2.645 0,0 -0.14,0.038 -0.119,-0.162 0.087,-0.844 0.464,-3.219 0.464,-3.219 0,0 0.599,0.162 0.92,0.092 0.322,-0.069 1.587,-0.437 2.715,-0.437 1.126,0 3.864,0.391 4.53,2.576 0.668,2.185 0.022,3.383 -0.967,4.371 -0.988,0.989 -3.517,2.484 -3.954,2.829 -0.439,0.344 -1.541,1.059 -1.541,2.369 0,1.311 1.056,2.023 2.53,2.048 1.256,0.019 2.651,-0.776 3.013,-2.187 0.036,-0.136 0.242,-0.149 0.242,-0.149 z" /><path
         id="path1307"
         style="fill:#000000;fill-opacity:1;fill-rule:nonzero;stroke:none"
         d="m 215.02,565.3014 c -0.057,0.057 -0.139,0.137 -0.243,0.045 -0.102,-0.091 -0.044,-0.184 -0.333,-0.149 -0.286,0.034 -2.275,0.484 -3.472,0.484 -1.196,0 -5.959,-0.093 -7.52,-4.923 -1.565,-4.831 1.048,-8.252 3.518,-9.569 2.85,-1.521 6.993,-0.782 7.775,-0.369 0.782,0.415 0.734,-0.046 0.734,-0.046 l 0.599,3.128 c 0,0 -1.746,-2.852 -5.059,-2.437 -3.313,0.413 -5.568,2.576 -5.568,6.532 0,4.256 2.715,6.419 5.314,6.452 2.667,0.036 3.67,-0.575 4.727,-1.909 h 0.185 c 0,0 -0.599,2.703 -0.657,2.761" /><path
         id="path1311"
         style="fill:#000000;fill-opacity:1;fill-rule:nonzero;stroke:none"
         d="m 227.0954,563.3112 0.346,1.997 h -9.112 c 0,0 -0.117,-0.167 0.058,-0.192 0.441,-0.011 0.95,-0.376 0.933,-1.162 -0.023,-1.126 0,-12.075 0,-12.075 0,0 0.092,-1.069 -0.968,-1.21 -0.058,-0.008 -0.016,-0.112 -0.016,-0.112 l 9.199,-0.004 1.023,2.26 c 0,0 -0.095,0.061 -0.131,0.016 -0.208,-0.265 -0.976,-1.157 -2.164,-1.157 h -4.457 v 5.751 h 4.002 c 0,0 1.264,-0.023 1.264,-0.898 v 2.899 c 0,0 -0.022,-0.852 -1.034,-0.852 h -4.209 v 5.635 h 3.888 c 0,0 1.378,0.162 1.378,-0.896" /><path
         id="path1315"
         style="fill:#000000;fill-opacity:1;fill-rule:nonzero;stroke:none"
         d="m 244.3831,565.3078 c 0,0 -0.091,-0.074 0.023,-0.1 0.304,-0.1 1.021,-0.354 1.021,-1.207 v -9.086 c 0,0 -0.068,-4.623 4.901,-4.623 3.356,0 4.484,1.91 4.484,1.91 0,0 0.116,-1.035 0.274,-1.588 h 3.04 c 0,0 -1.012,0.07 -1.084,1.358 -0.067,1.288 0,12.398 0,12.398 0,0 -0.022,0.759 0.99,0.874 v 0.064 h -4.485 v -0.133 c 0,0 1.012,-0.046 1.012,-0.852 v -9.568 c 0,0 0.023,-3.266 -3.543,-3.266 -3.036,0 -3.195,3.059 -3.195,3.059 v 9.569 c 0,0 0.029,1.034 0.989,1.058 0,0 0.137,0.103 -0.042,0.133 z" /><path
         id="path1319"
         style="fill:#000000;fill-opacity:1;fill-rule:nonzero;stroke:none"
         d="m 262.9157,563.6571 3.626,-6.35 c -9.147,-11.805 -20.864,-14.628 -20.864,-14.628 l 2.009,-0.233 c 13.385,4.462 19.502,14.056 19.502,14.056 0,0 1.838,-3.473 2.389,-4.6 0.552,-1.128 -0.46,-1.172 -0.46,-1.172 v -0.162 h 4.695 v 0.139 c -0.782,0.183 -1.358,1.195 -1.358,1.195 l -3.795,6.601 c 0,0 2.505,4.349 3.313,5.567 0.803,1.219 1.288,1.127 1.288,1.127 v 0.111 h -3.108 l -0.023,-0.133 c 0.945,-0.254 0.553,-0.945 0.553,-0.945 l -2.735,-4.692 c 0,0 -2.163,4.073 -2.441,4.762 -0.274,0.689 0.531,0.92 0.531,0.92 v 0.088 h -4.762 v -0.158 c 0.949,-0.19 1.64,-1.493 1.64,-1.493" /><path
         id="path1323"
         style="fill:#000000;fill-opacity:1;fill-rule:nonzero;stroke:none"
         d="m 242.823,541.8252 c 0,0 -10.689,-3.333 -25.502,-3.24 l -0.736,-1.243 c 0,0 16.791,0.276 28.521,4.186 z" /><path
         id="path1327"
         style="fill:#000000;fill-opacity:1;fill-rule:nonzero;stroke:none"
         d="m 226.0161,544.1505 c 8.648,-0.829 33.581,-4.83 38.272,-4.554 7.178,-5.061 16.515,-3.634 16.515,-3.634 -1.84,1.471 -7.866,3.864 -7.866,3.864 13.387,2.07 15.78,6.717 15.78,6.717 -13.388,-0.506 -17.022,-6.304 -17.022,-6.304 -1.287,0.369 -2.16,0.645 -2.16,0.645 0,0 1.193,0.69 2.665,1.795 1.473,1.103 1.564,2.207 1.564,2.852 0,0.643 -0.643,1.701 -1.933,1.701 -1.377,0 -1.883,-1.104 -1.883,-1.977 0,-0.875 0.874,-1.657 0.874,-1.657 0,0 -1.487,-1.887 -3.175,-2.208 -1.489,0.397 -4.875,0.92 -6.44,0.874 1.012,-1.289 1.655,-1.609 1.655,-1.609 -6.256,0.367 -16.056,1.747 -38.502,4.69 -22.45,2.945 -41.956,0.369 -41.956,0.369 l -3.405,-3.035 c 13.801,4.783 40.901,2.055 47.017,1.471" /><path
         id="path1339"
         style="fill:#000000;fill-opacity:1;fill-rule:nonzero;stroke:none"
         d="m 236.8718,565.3078 h -2.644 l 0.522,-1.33 -4.911,-12.605 c 0,0 -0.396,-0.599 -0.832,-0.621 v -0.207 h 2.851 v 0.207 c 0,0 -0.898,0 -0.643,0.782 0.252,0.783 1.496,4.019 1.496,4.019 h 5.519 l 1.541,-3.904 c 0,0 0.227,-0.85 -0.506,-0.897 v -0.184 h 4.393 v 0.231 c 0,0 -0.691,-0.025 -1.199,1.011 -0.504,1.035 -5.587,13.498 -5.587,13.498 m -1.452,-2.566 2.327,-5.98 h -4.601 z" /></g><g
       transform="matrix(10.668889,0,0,10.668889,-1730.7224,-5563.8035)"
       id="g3178"><path
         id="path1287"
         style="fill:#000000;fill-opacity:1;fill-rule:nonzero;stroke:none"
         d="m 202.3564,575.3297 h 1.668 c 0,0 0.027,-0.029 -0.017,-0.038 -0.147,-0.029 -0.253,-0.181 -0.19,-0.341 0.094,-0.23 1.035,-2.543 1.035,-2.543 0,0 1.011,2.496 1.02,2.666 0.009,0.117 -0.076,0.19 -0.189,0.212 -0.036,0.006 -0.01,0.044 -0.01,0.044 h 0.981 c 0,0 0.024,-0.025 -0.016,-0.042 -0.131,-0.049 -0.222,-0.122 -0.312,-0.314 -0.149,-0.311 -1.784,-4.267 -1.784,-4.267 l -1.805,4.255 c 0,0 -0.108,0.265 -0.361,0.328 -0.017,0.004 -0.028,0.013 -0.02,0.04" /><path
         id="path1291"
         style="fill:#000000;fill-opacity:1;fill-rule:nonzero;stroke:none"
         d="m 211.9389,575.2981 c 0.374,-0.042 0.333,-0.391 0.333,-0.391 v -3.536 c 0,-0.133 -0.023,-0.334 -0.28,-0.406 -0.033,-0.009 0.003,-0.016 0.003,-0.016 0,0 1.398,-0.013 1.595,-0.013 0.022,-0.003 0.022,0.007 -0.005,0.013 -0.315,0.063 -0.279,0.423 -0.279,0.423 v 3.556 c 0,0.123 0.002,0.312 0.279,0.364 0.036,0.006 0.022,0.048 0.022,0.048 h -1.675 c -0.006,-0.017 -0.019,-0.04 0.007,-0.042" /><path
         id="path1295"
         style="fill:#000000;fill-opacity:1;fill-rule:nonzero;stroke:none"
         d="m 219.5345,575.3003 c 0.405,-0.044 0.361,-0.498 0.361,-0.498 v -3.383 c 0,-0.319 -0.242,-0.394 -0.329,-0.428 -0.024,-0.011 -0.016,-0.042 -0.016,-0.042 h 2.862 c 0,0 0.325,0.731 0.321,0.729 0,0.042 -0.067,0.055 -0.091,0.022 -0.315,-0.416 -0.624,-0.361 -0.624,-0.361 h -0.971 c -0.207,0 -0.186,0.229 -0.186,0.229 v 3.239 c 0,0.413 0.189,0.478 0.319,0.497 0.056,0.011 0.028,0.036 0.028,0.036 h -1.701 c -0.009,-0.023 -0.012,-0.036 0.027,-0.04" /><path
         id="path1299"
         style="fill:#000000;fill-opacity:1;fill-rule:nonzero;stroke:none"
         d="m 239.5576,573.0383 c 0.156,0 0.337,-0.044 0.373,-0.31 0.004,-0.04 0.062,-0.021 0.062,-0.021 v 1.067 c -0.049,0.002 -0.049,0.004 -0.053,-0.02 -0.053,-0.305 -0.36,-0.3 -0.36,-0.3 h -1.061 l 0.004,1.57 h 1.039 c 0.209,0 0.346,-0.108 0.346,-0.272 0,-0.032 0.08,-0.009 0.08,-0.009 v 0.637 h -2.796 c 0,0 -0.027,-0.04 0.009,-0.051 0.36,-0.105 0.314,-0.387 0.314,-0.387 v -3.483 c 0,-0.308 -0.22,-0.407 -0.314,-0.447 -0.027,-0.011 -0.018,-0.063 -0.018,-0.063 h 2.936 l 0.293,0.778 c 0,0 -0.068,0.031 -0.095,-0.007 -0.302,-0.364 -0.734,-0.389 -0.734,-0.389 l -1.056,0.01 -0.004,1.699 c 0,0 1.043,-0.002 1.035,-0.002" /><path
         id="path1331"
         style="fill:#000000;fill-opacity:1;fill-rule:nonzero;stroke:none"
         d="m 228.5975,575.3003 c 0.405,-0.044 0.361,-0.498 0.361,-0.498 v -3.383 c 0,-0.319 -0.241,-0.394 -0.329,-0.428 -0.024,-0.011 -0.015,-0.042 -0.015,-0.042 h 2.861 c 0,0 0.324,0.731 0.321,0.729 0,0.042 -0.067,0.055 -0.091,0.022 -0.315,-0.416 -0.626,-0.361 -0.626,-0.361 h -0.97 c -0.208,0 -0.182,0.229 -0.182,0.229 v 3.239 c 0,0.413 0.186,0.478 0.316,0.497 0.057,0.011 0.027,0.036 0.027,0.036 h -1.7 c -0.012,-0.023 -0.012,-0.036 0.027,-0.04" /><path
         id="path1335"
         style="fill:#000000;fill-opacity:1;fill-rule:nonzero;stroke:none"
         d="m 262.7217,573.0383 c 0.154,0 0.338,-0.044 0.371,-0.31 0.004,-0.04 0.065,-0.021 0.065,-0.021 v 1.067 c -0.052,0.002 -0.052,0.004 -0.056,-0.02 -0.091,-0.381 -0.361,-0.3 -0.361,-0.3 h -1.061 l 0.005,1.57 h 1.039 c 0.209,0 0.346,-0.108 0.346,-0.272 0,-0.032 0.08,-0.009 0.08,-0.009 v 0.637 h -2.796 c 0,0 -0.028,-0.021 0.009,-0.032 0.358,-0.105 0.314,-0.406 0.314,-0.406 v -3.483 c 0,-0.308 -0.22,-0.377 -0.314,-0.417 -0.027,-0.013 -0.019,-0.066 -0.019,-0.066 h 2.937 l 0.293,0.751 c 0,0 -0.064,0.031 -0.095,-0.007 -0.302,-0.364 -0.734,-0.341 -0.734,-0.341 h -0.822 c -0.28,0 -0.234,0.23 -0.234,0.23 l -0.004,1.431 c 0,0 1.042,-0.002 1.037,-0.002" /><path
         id="path1343"
         style="fill:#000000;fill-opacity:1;fill-rule:nonzero;stroke:none"
         d="m 250.9984,575.3636 c 0.396,-0.046 0.324,-0.4 0.324,-0.4 v -3.625 c 0,-0.164 -0.134,-0.267 -0.238,-0.32 -0.063,-0.034 -0.113,-0.048 -0.113,-0.048 0,0 1.367,-0.023 2.001,0 0.634,0.023 2.392,0.392 2.392,2.312 0,1.736 -1.622,2.151 -2.162,2.151 h -2.219 c 0,0 -0.03,-0.064 0.015,-0.07 m 1.3,-0.299 c 0,0 2.064,0.36 2.064,-1.803 0,-2.163 -2.064,-1.893 -2.064,-1.893 z" /></g><g
       transform="matrix(10.668889,0,0,10.668889,-1730.7224,-5563.8035)"
       id="g3169"><path
         id="path1347"
         style="fill:#000000;fill-opacity:1;fill-rule:nonzero;stroke:none"
         d="m 185.1087,531.5144 c -0.05,0.141 -0.119,0.27 -0.32,0.367 h 1.134 l 3.337,-5.397 h -1.035 l -0.98,1.587 h -3.315 l -0.774,-1.587 h -0.52 z m 1.851,-2.958 -1.55,2.688 -1.264,-2.688 z" /><path
         id="path1351"
         style="fill:#000000;fill-opacity:1;fill-rule:nonzero;stroke:none"
         d="m 193.3757,531.8811 -0.005,-4.986 h 1.227 c 0.422,0 0.603,0.129 1.046,0.485 l -0.403,-0.896 h -2.708 v 5.397 z" /><path
         id="path1355"
         style="fill:#000000;fill-opacity:1;fill-rule:nonzero;stroke:none"
         d="m 198.2614,531.5144 c -0.05,0.141 -0.121,0.27 -0.323,0.367 h 1.138 l 3.336,-5.397 h -1.036 l -0.978,1.587 h -3.319 l -0.773,-1.587 h -0.517 z m 1.85,-2.958 -1.549,2.688 -1.266,-2.688 z" /><path
         id="path1359"
         style="fill:#000000;fill-opacity:1;fill-rule:nonzero;stroke:none"
         d="m 210.323,526.5286 c -0.167,-0.065 -0.764,-0.259 -2.012,-0.173 -1.764,0.125 -2.723,1.398 -2.829,2.834 -0.175,2.418 2.117,2.961 3.474,2.799 0.351,-0.042 0.914,-0.128 0.914,-0.128 l 0.292,-0.734 c 0,0 -0.427,0.35 -1.317,0.554 -1.448,0.335 -2.861,-0.463 -2.483,-2.563 0.242,-1.333 1.071,-2.222 1.966,-2.433 1.179,-0.28 2.01,0.053 2.13,0.173 z" /><path
         id="path1363"
         style="fill:#000000;fill-opacity:1;fill-rule:nonzero;stroke:none"
         d="m 212.1819,529.5348 c 0.748,0.302 0.949,0.727 0.904,1.322 -0.054,0.727 -0.503,0.889 -1.141,0.809 v -5.181 h -0.844 v 5.396 h 1.522 c 0.916,0 1.267,-0.518 1.282,-0.971 0.021,-0.62 -0.401,-0.977 -0.84,-1.133 0.574,0.028 0.906,-0.733 0.965,-1.203 0.117,-0.896 0.091,-1.377 0.347,-1.733 0.112,-0.173 0.368,-0.114 0.513,-0.032 l 0.071,-0.27 -0.453,-0.13 c -0.487,-0.14 -1.185,0.4 -1.291,2.456 -0.025,0.485 -0.437,0.778 -1.035,0.67" /><path
         id="path1367"
         style="fill:#000000;fill-opacity:1;fill-rule:nonzero;stroke:none"
         d="m 217.3938,526.2587 c -1.849,0 -2.92,1.71 -2.819,2.93 0.189,2.347 1.969,2.945 3.418,2.882 1.677,-0.076 2.842,-1.425 2.667,-3.044 -0.202,-1.861 -1.704,-2.768 -3.266,-2.768 m 2.437,2.789 c 0.127,0.81 -0.427,2.646 -1.879,2.633 -1.609,-0.01 -2.464,-1.208 -2.553,-2.519 -0.096,-1.36 0.93,-2.477 2.035,-2.477 0.639,0 2.061,0.194 2.397,2.363" /><path
         d="m 221.604,526.485 h 0.85 v 5.396 h -0.85 z"
         style="fill:#000000;fill-opacity:1;fill-rule:nonzero;stroke:none"
         id="path1369" /><path
         id="path1381"
         style="fill:#000000;fill-opacity:1;fill-rule:nonzero;stroke:none"
         d="m 223.5052,527.5468 c 0.165,-0.458 0.335,-0.814 0.767,-0.89 0.729,-0.128 0.866,0.314 0.776,0.879 -0.202,1.253 -1.368,2.418 -0.931,3.525 0.292,0.74 1.085,0.886 1.804,0.917 l 0.292,-0.609 c -0.668,0.426 -1.452,0.302 -1.443,-0.156 -0.055,-1.28 1.061,-2.311 1.004,-3.455 -0.073,-0.959 -0.672,-1.467 -1.495,-1.354 -0.378,0.053 -0.619,0.156 -0.992,0.357 z" /><path
         id="path1385"
         style="fill:#000000;fill-opacity:1;fill-rule:nonzero;stroke:none"
         d="m 226.4892,531.8811 h 2.989 l 0.222,-0.561 c -0.207,0.135 -0.501,0.173 -0.865,0.173 h -1.496 v -1.922 h 1.559 c 0.244,0 0.381,0.012 0.5,0.196 v -0.799 c -0.104,0.124 -0.24,0.215 -0.5,0.215 h -1.559 v -2.288 h 1.578 c 0.422,0 0.602,0.129 1.245,0.485 l -0.4,-0.896 h -3.273 z" /><path
         id="path1389"
         style="fill:#000000;fill-opacity:1;fill-rule:nonzero;stroke:none"
         d="m 230.7066,531.8811 h 2.989 l 0.222,-0.561 c -0.207,0.135 -0.503,0.173 -0.865,0.173 h -1.496 v -1.922 h 1.556 c 0.247,0 0.383,0.012 0.503,0.196 v -0.799 c -0.106,0.124 -0.241,0.215 -0.503,0.215 h -1.556 v -2.288 h 1.575 c 0.423,0 0.603,0.129 1.248,0.485 l -0.402,-0.896 h -3.271 z" /><path
         id="path1393"
         style="fill:#000000;fill-opacity:1;fill-rule:nonzero;stroke:none"
         d="m 237.4885,526.4843 v 5.036 c 0,0.15 -0.05,0.274 -0.207,0.361 h 1.012 c 1.434,0.082 3.215,-0.323 3.072,-2.667 -0.103,-1.619 -1.264,-2.73 -3.072,-2.73 z m 3.067,2.705 c 0.156,1.979 -0.89,2.595 -2.222,2.454 v -4.906 c 1.04,-0.036 2.073,0.557 2.222,2.452" /><path
         id="path1397"
         style="fill:#000000;fill-opacity:1;fill-rule:nonzero;stroke:none"
         d="m 242.2908,531.8811 h 2.987 l 0.224,-0.561 c -0.207,0.135 -0.503,0.173 -0.867,0.173 h -1.498 v -1.922 h 1.56 c 0.247,0 0.383,0.012 0.503,0.196 v -0.799 c -0.106,0.124 -0.241,0.215 -0.503,0.215 h -1.56 v -2.288 h 1.578 c 0.423,0 0.603,0.129 1.246,0.485 l -0.399,-0.896 h -3.271 z" /><path
         id="path1401"
         style="fill:#000000;fill-opacity:1;fill-rule:nonzero;stroke:none"
         d="m 247.032,527.5468 c 0.167,-0.458 0.339,-0.814 0.769,-0.89 0.732,-0.128 0.867,0.314 0.774,0.879 -0.199,1.253 -1.364,2.418 -0.927,3.525 0.288,0.74 1.084,0.886 1.803,0.917 l 0.292,-0.609 c -0.669,0.426 -1.452,0.302 -1.443,-0.156 -0.054,-1.28 1.061,-2.311 1.007,-3.455 -0.076,-0.959 -0.675,-1.467 -1.498,-1.354 -0.377,0.053 -0.62,0.156 -0.992,0.357 z" /><path
         id="path1405"
         style="fill:#000000;fill-opacity:1;fill-rule:nonzero;stroke:none"
         d="m 255.9726,531.8811 0.359,-0.869 c -0.593,0.447 -0.877,0.437 -1.299,0.46 l -0.32,-0.044 -0.009,-4.944 h -0.84 l -0.004,4.944 -0.262,0.044 c -0.423,-0.023 -0.783,-0.061 -1.223,-0.487 l 0.404,0.896 z" /><path
         id="path1409"
         style="fill:#000000;fill-opacity:1;fill-rule:nonzero;stroke:none"
         d="m 258.8186,531.5144 c -0.05,0.141 -0.121,0.27 -0.323,0.367 h 1.138 l 3.337,-5.397 h -1.038 l -0.977,1.587 h -3.319 l -0.773,-1.587 h -0.518 z m 1.849,-2.958 -1.546,2.688 -1.269,-2.688 z" /><path
         id="path1413"
         style="fill:#000000;fill-opacity:1;fill-rule:nonzero;stroke:none"
         d="m 264.5717,531.8811 -0.005,-4.986 h 1.228 c 0.422,0 0.603,0.129 1.043,0.485 l -0.4,-0.896 h -2.708 v 5.397 z" /><path
         id="path1417"
         style="fill:#000000;fill-opacity:1;fill-rule:nonzero;stroke:none"
         d="m 267.0993,531.8811 h 2.99 l 0.221,-0.561 c -0.204,0.135 -0.5,0.173 -0.864,0.173 h -1.497 v -1.922 h 1.56 c 0.243,0 0.379,0.012 0.499,0.196 v -0.799 c -0.103,0.124 -0.238,0.215 -0.499,0.215 h -1.56 v -2.288 h 1.579 c 0.422,0 0.601,0.129 1.244,0.485 l -0.399,-0.896 h -3.274 z" /><path
         id="path1421"
         style="fill:#000000;fill-opacity:1;fill-rule:nonzero;stroke:none"
         d="m 271.5738,531.8811 0.958,-0.004 2.281,-3.352 c 0.156,-0.28 0.156,-0.291 0.156,-0.439 v 3.795 h 0.414 v -5.656 l -2.946,4.372 c -0.121,0.194 -0.139,0.259 -0.18,0.394 v -4.507 h -0.417 l 0.004,5.024 c 0,0.114 -0.069,0.255 -0.27,0.373" /><path
         id="path1425"
         style="fill:#000000;fill-opacity:1;fill-rule:nonzero;stroke:none"
         d="m 279.5193,531.8811 0.356,-0.869 c -0.593,0.447 -0.876,0.437 -1.295,0.46 l -0.324,-0.044 -0.008,-4.944 h -0.841 l -0.004,4.944 -0.262,0.044 c -0.423,-0.023 -0.783,-0.061 -1.22,-0.487 l 0.402,0.896 z" /><path
         id="path1429"
         style="fill:#000000;fill-opacity:1;fill-rule:nonzero;stroke:none"
         d="m 280.1318,527.5468 c 0.167,-0.458 0.337,-0.814 0.769,-0.89 0.729,-0.128 0.864,0.314 0.774,0.879 -0.202,1.253 -1.367,2.418 -0.931,3.525 0.292,0.74 1.085,0.886 1.804,0.917 l 0.292,-0.609 c -0.669,0.426 -1.453,0.302 -1.443,-0.156 -0.055,-1.28 1.06,-2.311 1.007,-3.455 -0.076,-0.959 -0.673,-1.467 -1.498,-1.354 -0.378,0.053 -0.62,0.156 -0.989,0.357 z" /><path
         id="path1433"
         style="fill:#000000;fill-opacity:1;fill-rule:nonzero;stroke:none"
         d="m 185.1087,531.5144 c -0.05,0.141 -0.119,0.27 -0.32,0.367 h 1.134 l 3.337,-5.397 h -1.035 l -0.98,1.587 h -3.315 l -0.774,-1.587 h -0.52 z m 1.851,-2.958 -1.55,2.688 -1.264,-2.688 z" /><path
         id="path1437"
         style="fill:#000000;fill-opacity:1;fill-rule:nonzero;stroke:none"
         d="m 193.3757,531.8811 -0.005,-4.986 h 1.227 c 0.422,0 0.603,0.129 1.046,0.485 l -0.403,-0.896 h -2.708 v 5.397 z" /><path
         id="path1441"
         style="fill:#000000;fill-opacity:1;fill-rule:nonzero;stroke:none"
         d="m 198.2614,531.5144 c -0.05,0.141 -0.121,0.27 -0.323,0.367 h 1.138 l 3.336,-5.397 h -1.036 l -0.978,1.587 h -3.319 l -0.773,-1.587 h -0.517 z m 1.85,-2.958 -1.549,2.688 -1.266,-2.688 z" /><path
         id="path1445"
         style="fill:#000000;fill-opacity:1;fill-rule:nonzero;stroke:none"
         d="m 210.323,526.5286 c -0.167,-0.065 -0.764,-0.259 -2.012,-0.173 -1.764,0.125 -2.723,1.398 -2.829,2.834 -0.175,2.418 2.117,2.961 3.474,2.799 0.351,-0.042 0.914,-0.128 0.914,-0.128 l 0.292,-0.734 c 0,0 -0.427,0.35 -1.317,0.554 -1.448,0.335 -2.861,-0.463 -2.483,-2.563 0.242,-1.333 1.071,-2.222 1.966,-2.433 1.179,-0.28 2.01,0.053 2.13,0.173 z" /><path
         id="path1449"
         style="fill:#000000;fill-opacity:1;fill-rule:nonzero;stroke:none"
         d="m 212.1819,529.5348 c 0.748,0.302 0.949,0.727 0.904,1.322 -0.054,0.727 -0.503,0.889 -1.141,0.809 v -5.181 h -0.844 v 5.396 h 1.522 c 0.916,0 1.267,-0.518 1.282,-0.971 0.021,-0.62 -0.401,-0.977 -0.84,-1.133 0.574,0.028 0.906,-0.733 0.965,-1.203 0.117,-0.896 0.091,-1.377 0.347,-1.733 0.112,-0.173 0.368,-0.114 0.513,-0.032 l 0.071,-0.27 -0.453,-0.13 c -0.487,-0.14 -1.185,0.4 -1.291,2.456 -0.025,0.485 -0.437,0.778 -1.035,0.67" /><path
         id="path1453"
         style="fill:#000000;fill-opacity:1;fill-rule:nonzero;stroke:none"
         d="m 217.3938,526.2587 c -1.849,0 -2.92,1.71 -2.819,2.93 0.189,2.347 1.969,2.945 3.418,2.882 1.677,-0.076 2.842,-1.425 2.667,-3.044 -0.202,-1.861 -1.704,-2.768 -3.266,-2.768 m 2.437,2.789 c 0.127,0.81 -0.427,2.646 -1.879,2.633 -1.609,-0.01 -2.464,-1.208 -2.553,-2.519 -0.096,-1.36 0.93,-2.477 2.035,-2.477 0.639,0 2.061,0.194 2.397,2.363" /><path
         d="m 221.604,526.485 h 0.85 v 5.396 h -0.85 z"
         style="fill:#000000;fill-opacity:1;fill-rule:nonzero;stroke:none"
         id="path1455" /><path
         id="path1467"
         style="fill:#000000;fill-opacity:1;fill-rule:nonzero;stroke:none"
         d="m 223.5052,527.5468 c 0.165,-0.458 0.335,-0.814 0.767,-0.89 0.729,-0.128 0.866,0.314 0.776,0.879 -0.202,1.253 -1.368,2.418 -0.931,3.525 0.292,0.74 1.085,0.886 1.804,0.917 l 0.292,-0.609 c -0.668,0.426 -1.452,0.302 -1.443,-0.156 -0.055,-1.28 1.061,-2.311 1.004,-3.455 -0.073,-0.959 -0.672,-1.467 -1.495,-1.354 -0.378,0.053 -0.619,0.156 -0.992,0.357 z" /><path
         id="path1471"
         style="fill:#000000;fill-opacity:1;fill-rule:nonzero;stroke:none"
         d="m 226.4892,531.8811 h 2.989 l 0.222,-0.561 c -0.207,0.135 -0.501,0.173 -0.865,0.173 h -1.496 v -1.922 h 1.559 c 0.244,0 0.381,0.012 0.5,0.196 v -0.799 c -0.104,0.124 -0.24,0.215 -0.5,0.215 h -1.559 v -2.288 h 1.578 c 0.422,0 0.602,0.129 1.245,0.485 l -0.4,-0.896 h -3.273 z" /><path
         id="path1475"
         style="fill:#000000;fill-opacity:1;fill-rule:nonzero;stroke:none"
         d="m 230.7066,531.8811 h 2.989 l 0.222,-0.561 c -0.207,0.135 -0.503,0.173 -0.865,0.173 h -1.496 v -1.922 h 1.556 c 0.247,0 0.383,0.012 0.503,0.196 v -0.799 c -0.106,0.124 -0.241,0.215 -0.503,0.215 h -1.556 v -2.288 h 1.575 c 0.423,0 0.603,0.129 1.248,0.485 l -0.402,-0.896 h -3.271 z" /><path
         id="path1479"
         style="fill:#000000;fill-opacity:1;fill-rule:nonzero;stroke:none"
         d="m 237.4885,526.4843 v 5.036 c 0,0.15 -0.05,0.274 -0.207,0.361 h 1.012 c 1.434,0.082 3.215,-0.323 3.072,-2.667 -0.103,-1.619 -1.264,-2.73 -3.072,-2.73 z m 3.067,2.705 c 0.156,1.979 -0.89,2.595 -2.222,2.454 v -4.906 c 1.04,-0.036 2.073,0.557 2.222,2.452" /><path
         id="path1483"
         style="fill:#000000;fill-opacity:1;fill-rule:nonzero;stroke:none"
         d="m 242.2908,531.8811 h 2.987 l 0.224,-0.561 c -0.207,0.135 -0.503,0.173 -0.867,0.173 h -1.498 v -1.922 h 1.56 c 0.247,0 0.383,0.012 0.503,0.196 v -0.799 c -0.106,0.124 -0.241,0.215 -0.503,0.215 h -1.56 v -2.288 h 1.578 c 0.423,0 0.603,0.129 1.246,0.485 l -0.399,-0.896 h -3.271 z" /><path
         id="path1487"
         style="fill:#000000;fill-opacity:1;fill-rule:nonzero;stroke:none"
         d="m 247.032,527.5468 c 0.167,-0.458 0.339,-0.814 0.769,-0.89 0.732,-0.128 0.867,0.314 0.774,0.879 -0.199,1.253 -1.364,2.418 -0.927,3.525 0.288,0.74 1.084,0.886 1.803,0.917 l 0.292,-0.609 c -0.669,0.426 -1.452,0.302 -1.443,-0.156 -0.054,-1.28 1.061,-2.311 1.007,-3.455 -0.076,-0.959 -0.675,-1.467 -1.498,-1.354 -0.377,0.053 -0.62,0.156 -0.992,0.357 z" /><path
         id="path1491"
         style="fill:#000000;fill-opacity:1;fill-rule:nonzero;stroke:none"
         d="m 255.9726,531.8811 0.359,-0.869 c -0.593,0.447 -0.877,0.437 -1.299,0.46 l -0.32,-0.044 -0.009,-4.944 h -0.84 l -0.004,4.944 -0.262,0.044 c -0.423,-0.023 -0.783,-0.061 -1.223,-0.487 l 0.404,0.896 z" /><path
         id="path1495"
         style="fill:#000000;fill-opacity:1;fill-rule:nonzero;stroke:none"
         d="m 258.8186,531.5144 c -0.05,0.141 -0.121,0.27 -0.323,0.367 h 1.138 l 3.337,-5.397 h -1.038 l -0.977,1.587 h -3.319 l -0.773,-1.587 h -0.518 z m 1.849,-2.958 -1.546,2.688 -1.269,-2.688 z" /><path
         id="path1499"
         style="fill:#000000;fill-opacity:1;fill-rule:nonzero;stroke:none"
         d="m 264.5717,531.8811 -0.005,-4.986 h 1.228 c 0.422,0 0.603,0.129 1.043,0.485 l -0.4,-0.896 h -2.708 v 5.397 z" /><path
         id="path1503"
         style="fill:#000000;fill-opacity:1;fill-rule:nonzero;stroke:none"
         d="m 267.0993,531.8811 h 2.99 l 0.221,-0.561 c -0.204,0.135 -0.5,0.173 -0.864,0.173 h -1.497 v -1.922 h 1.56 c 0.243,0 0.379,0.012 0.499,0.196 v -0.799 c -0.103,0.124 -0.238,0.215 -0.499,0.215 h -1.56 v -2.288 h 1.579 c 0.422,0 0.601,0.129 1.244,0.485 l -0.399,-0.896 h -3.274 z" /><path
         id="path1507"
         style="fill:#000000;fill-opacity:1;fill-rule:nonzero;stroke:none"
         d="m 271.5738,531.8811 0.958,-0.004 2.281,-3.352 c 0.156,-0.28 0.156,-0.291 0.156,-0.439 v 3.795 h 0.414 v -5.656 l -2.946,4.372 c -0.121,0.194 -0.139,0.259 -0.18,0.394 v -4.507 h -0.417 l 0.004,5.024 c 0,0.114 -0.069,0.255 -0.27,0.373" /><path
         id="path1511"
         style="fill:#000000;fill-opacity:1;fill-rule:nonzero;stroke:none"
         d="m 279.5193,531.8811 0.356,-0.869 c -0.593,0.447 -0.876,0.437 -1.295,0.46 l -0.324,-0.044 -0.008,-4.944 h -0.841 l -0.004,4.944 -0.262,0.044 c -0.423,-0.023 -0.783,-0.061 -1.22,-0.487 l 0.402,0.896 z" /><path
         id="path1515"
         style="fill:#000000;fill-opacity:1;fill-rule:nonzero;stroke:none"
         d="m 280.1318,527.5468 c 0.167,-0.458 0.337,-0.814 0.769,-0.89 0.729,-0.128 0.864,0.314 0.774,0.879 -0.202,1.253 -1.367,2.418 -0.931,3.525 0.292,0.74 1.085,0.886 1.804,0.917 l 0.292,-0.609 c -0.669,0.426 -1.453,0.302 -1.443,-0.156 -0.055,-1.28 1.06,-2.311 1.007,-3.455 -0.076,-0.959 -0.673,-1.467 -1.498,-1.354 -0.378,0.053 -0.62,0.156 -0.989,0.357 z" /><path
         id="path1519"
         style="fill:#000000;fill-opacity:1;fill-rule:nonzero;stroke:none"
         d="m 184.7662,533.223 c 0.081,-0.007 0.134,-0.065 0.181,-0.098 l 1.105,-0.816 h 0.301 l -0.85,0.797 c -0.007,0.01 -0.01,0.025 -0.01,0.042 0,0.041 0.033,0.068 0.096,0.075 v 0.1 h -0.823 z" /><path
         id="path1523"
         style="fill:#000000;fill-opacity:1;fill-rule:nonzero;stroke:none"
         d="m 228.8145,533.3231 h -0.821 v -0.1 c 0.064,-0.007 0.096,-0.034 0.096,-0.075 0,-0.017 -0.004,-0.033 -0.011,-0.042 l -0.849,-0.797 h 0.299 l 1.105,0.816 c 0.049,0.033 0.1,0.091 0.181,0.098 z" /></g></g></svg>
